<svg width="56" height="56" viewBox="0 0 56 56" fill="none" xmlns="http://www.w3.org/2000/svg">
<circle cx="28" cy="28" r="26" fill="#ECEEF0" stroke="#FBFCFD" stroke-width="4"/>
<rect width="24" height="24" transform="translate(16 16)" fill="#ECEEF0"/>
<path d="M28.5 23.25C28.5 22.8358 28.1642 22.5 27.75 22.5C27.3358 22.5 27 22.8358 27 23.25V28.75C27 29.0191 27.1442 29.2677 27.3779 29.4012L30.8779 31.4012C31.2375 31.6067 31.6957 31.4817 31.9012 31.1221C32.1067 30.7625 31.9817 30.3043 31.6221 30.0988L28.5 28.3148V23.25Z" fill="#889096"/>
<path fill-rule="evenodd" clip-rule="evenodd" d="M28 17C21.9249 17 17 21.9249 17 28C17 34.0751 21.9249 39 28 39C34.0751 39 39 34.0751 39 28C39 21.9249 34.0751 17 28 17ZM18.5 28C18.5 22.7533 22.7533 18.5 28 18.5C33.2467 18.5 37.5 22.7533 37.5 28C37.5 33.2467 33.2467 37.5 28 37.5C22.7533 37.5 18.5 33.2467 18.5 28Z" fill="#889096"/>
</svg>
