<svg width="56" height="56" viewBox="0 0 56 56" fill="none" xmlns="http://www.w3.org/2000/svg">
<circle cx="28" cy="28" r="26" fill="#F76808" stroke="#FBFCFD" stroke-width="4"/>
<rect width="24" height="24" transform="translate(16 18)" fill="#F76808"/>
<path fill-rule="evenodd" clip-rule="evenodd" d="M22.7365 20.5C19.829 20.5 17 23.052 17 26.5135C17 30.3318 19.8014 33.5735 22.3888 35.7763C23.7055 36.8973 25.0184 37.7929 26.0004 38.4077C26.4922 38.7157 26.9029 38.9544 27.1922 39.1169C27.4093 39.2388 27.5582 39.318 27.6223 39.3516C27.7407 39.4132 27.8652 39.4527 28 39.4527C28.1193 39.4527 28.2378 39.4238 28.3438 39.3693C28.5003 39.2886 28.6543 39.2031 28.8078 39.1169C29.0971 38.9544 29.5078 38.7157 29.9996 38.4077C30.9816 37.7929 32.2945 36.8973 33.6112 35.7763C36.1986 33.5735 39 30.3318 39 26.5135C39 23.052 36.171 20.5 33.2635 20.5C30.9702 20.5 29.1192 21.7262 28 23.6048C26.8808 21.7262 25.0298 20.5 22.7365 20.5ZM22.7365 22C20.6575 22 18.5 23.8804 18.5 26.5135C18.5 29.6209 20.8236 32.4738 23.3612 34.6342C24.607 35.6948 25.8566 36.5479 26.7965 37.1364C27.2656 37.4301 27.6557 37.6567 27.9269 37.8091L28 37.85L28.0731 37.8091C28.3443 37.6567 28.7344 37.4301 29.2035 37.1364C30.1434 36.5479 31.393 35.6948 32.6388 34.6342C35.1764 32.4738 37.5 29.6209 37.5 26.5135C37.5 23.8804 35.3425 22 33.2635 22C31.1581 22 29.4627 23.389 28.7115 25.6426C28.6094 25.9488 28.3228 26.1554 28 26.1554C27.6772 26.1554 27.3906 25.9488 27.2885 25.6426C26.5373 23.389 24.8419 22 22.7365 22Z" fill="#FEFCFB"/>
</svg>
