<svg width="56" height="56" viewBox="0 0 56 56" fill="none" xmlns="http://www.w3.org/2000/svg">
<circle cx="28" cy="28" r="26" fill="#ECEEF0" stroke="#FBFCFD" stroke-width="4"/>
<rect width="24" height="24" transform="translate(16 17)" fill="#ECEEF0"/>
<path fill-rule="evenodd" clip-rule="evenodd" d="M21 20.75C21 19.7835 21.7835 19 22.75 19H33.25C34.2165 19 35 19.7835 35 20.75V38.25C35 38.5383 34.8347 38.8011 34.5749 38.926C34.315 39.0509 34.0066 39.0158 33.7815 38.8357L28 34.2105L22.2185 38.8357C21.9934 39.0158 21.685 39.0509 21.4251 38.926C21.1653 38.8011 21 38.5383 21 38.25V20.75ZM22.75 20.5C22.6119 20.5 22.5 20.6119 22.5 20.75V36.6895L27.5315 32.6643C27.8054 32.4452 28.1946 32.4452 28.4685 32.6643L33.5 36.6895V20.75C33.5 20.6119 33.3881 20.5 33.25 20.5H22.75Z" fill="#889096"/>
</svg>
