<svg width="56" height="56" viewBox="0 0 56 56" fill="none" xmlns="http://www.w3.org/2000/svg">
<circle cx="28" cy="28" r="26" fill="#ECEEF0" stroke="#FBFCFD" stroke-width="4"/>
<rect width="24" height="24" transform="translate(16 17)" fill="#ECEEF0"/>
<path fill-rule="evenodd" clip-rule="evenodd" d="M22.7365 19.5C19.829 19.5 17 22.052 17 25.5135C17 29.3318 19.8014 32.5735 22.3888 34.7763C23.7055 35.8973 25.0184 36.7929 26.0004 37.4077C26.4922 37.7157 26.9029 37.9544 27.1922 38.1169C27.4093 38.2388 27.5582 38.318 27.6223 38.3516C27.7407 38.4132 27.8652 38.4527 28 38.4527C28.1193 38.4527 28.2378 38.4238 28.3438 38.3693C28.5003 38.2886 28.6543 38.2031 28.8078 38.1169C29.0971 37.9544 29.5078 37.7157 29.9996 37.4077C30.9816 36.7929 32.2945 35.8973 33.6112 34.7763C36.1986 32.5735 39 29.3318 39 25.5135C39 22.052 36.171 19.5 33.2635 19.5C30.9702 19.5 29.1192 20.7262 28 22.6048C26.8808 20.7262 25.0298 19.5 22.7365 19.5ZM22.7365 21C20.6575 21 18.5 22.8804 18.5 25.5135C18.5 28.6209 20.8236 31.4738 23.3612 33.6342C24.607 34.6948 25.8566 35.5479 26.7965 36.1364C27.2656 36.4301 27.6557 36.6567 27.9269 36.8091L28 36.85L28.0731 36.8091C28.3443 36.6567 28.7344 36.4301 29.2035 36.1364C30.1434 35.5479 31.393 34.6948 32.6388 33.6342C35.1764 31.4738 37.5 28.6209 37.5 25.5135C37.5 22.8804 35.3425 21 33.2635 21C31.1581 21 29.4627 22.389 28.7115 24.6426C28.6094 24.9488 28.3228 25.1554 28 25.1554C27.6772 25.1554 27.3906 24.9488 27.2885 24.6426C26.5373 22.389 24.8419 21 22.7365 21Z" fill="#889096"/>
</svg>
