<svg width="231" height="213" viewBox="0 0 231 213" fill="none" xmlns="http://www.w3.org/2000/svg">
<rect width="231" height="213" rx="15" fill="#656565"/>
<path d="M90.1122 64.9615C90.9152 60.9102 95.16 58.5459 99.0271 59.9961V59.9961L110.163 63.599C113.185 64.5765 116.068 65.9391 118.742 67.6529L130.287 75.0537C131.899 76.0871 133.429 77.2442 134.862 78.5144L153.01 94.6004L161.135 100.587C161.561 100.901 161.95 101.263 162.295 101.665V101.665C164.983 104.8 164.378 109.571 160.993 111.937L83.4307 166.147C82.1704 167.028 80.6698 167.5 79.1322 167.5V167.5C75.6503 167.5 72.6258 165.105 71.8283 161.715L71.7403 161.341C71.4791 160.231 71.4586 159.077 71.6804 157.959L90.1122 64.9615Z" fill="#DFDFDF"/>
<circle cx="94.4133" cy="112.595" r="9.2278" fill="#8C8C8C"/>
<circle cx="123.942" cy="112.595" r="9.2278" fill="#8C8C8C"/>
<circle cx="108.255" cy="93.2162" r="6.45946" fill="#8C8C8C"/>
<circle cx="142.398" cy="107.981" r="4.6139" fill="#8C8C8C"/>
<ellipse cx="128.524" cy="82.8997" rx="15.2491" ry="5.27853" transform="rotate(33.1205 128.524 82.8997)" fill="#8C8C8C"/>
<ellipse cx="105.455" cy="69.9808" rx="15.2491" ry="5.27853" transform="rotate(22.8517 105.455 69.9808)" fill="#8C8C8C"/>
<ellipse cx="149.905" cy="101.625" rx="15.7254" ry="3.38669" transform="rotate(41.8977 149.905 101.625)" fill="#8C8C8C"/>
<circle cx="106.409" cy="131.973" r="6.45946" fill="#8C8C8C"/>
<circle cx="85.1855" cy="138.432" r="6.45946" fill="#8C8C8C"/>
<path d="M83.3398 55.4869C83.3398 53.3645 84.2407 51.3418 85.8183 49.9219V49.9219C87.193 48.6846 88.9772 48 90.8267 48H92.7823C93.5603 48 94.3366 48.0721 95.1013 48.2155L97.6988 48.7026C100.117 49.156 102.49 49.8263 104.789 50.7051L113.504 54.0373C115.846 54.9327 118.117 56.0028 120.298 57.2388L130.863 63.2259L141.276 70.0483C143.252 71.3427 145.133 72.7754 146.906 74.3357L155.778 82.1429L171.805 98.9922C173.088 100.341 173.945 102.037 174.268 103.87L174.327 104.201C174.844 107.136 173.849 110.134 171.679 112.176V112.176C169.043 114.658 165.112 115.259 161.832 113.728V113.728C160.888 113.287 160.015 112.679 159.278 111.942L141.044 93.7079C137.961 90.625 134.488 87.9586 130.714 85.7765L111.536 74.6891C108.435 72.8965 105.149 71.4462 101.734 70.3637L91.0234 66.9675C89.0189 66.332 87.2384 65.1357 85.8922 63.5203L85.7239 63.3184C84.1835 61.4699 83.3398 59.1398 83.3398 56.7335V55.4869Z" fill="#AFAFAF"/>
<path d="M129.479 71.921C129.479 71.4343 129.685 70.9703 130.045 70.6432V70.6432C130.394 70.3261 130.858 70.1659 131.329 70.1998L132.872 70.3109C133.426 70.3509 133.97 70.477 134.486 70.6848L137.603 71.9424L140.942 73.8503L141.203 74.0229C143.178 75.3278 145.058 76.7712 146.828 78.3424L146.952 78.4517L150.815 82.5478C151.126 82.8774 151.333 83.2911 151.412 83.7375L151.428 83.8313C151.551 84.5369 151.313 85.2575 150.794 85.7507V85.7507C150.155 86.3573 149.205 86.5081 148.408 86.1329V86.1329C148.181 86.0262 147.974 85.8801 147.798 85.7021L144.748 82.6269C143.108 80.9729 141.258 79.541 139.246 78.3678L136.281 76.639C135.532 76.2028 134.739 75.8496 133.914 75.5858L131.339 74.7627C130.851 74.6067 130.418 74.3137 130.092 73.9187L130.056 73.8749C129.683 73.4237 129.479 72.8568 129.479 72.2715V71.921Z" fill="#DFDFDF"/>
<circle cx="105.487" cy="92.2934" r="2.76834" fill="#A5A5A5"/>
<ellipse cx="92.5677" cy="94.139" rx="2.76834" ry="0.92278" transform="rotate(51.2823 92.5677 94.139)" fill="#939495"/>
<ellipse cx="101.479" cy="85.8028" rx="2.76834" ry="0.92278" transform="rotate(113.154 101.479 85.8028)" fill="#939495"/>
<ellipse cx="99.1189" cy="100.738" rx="2.76834" ry="0.92278" transform="rotate(148.035 99.1189 100.738)" fill="#939495"/>
<ellipse cx="125.856" cy="99.1558" rx="2.76834" ry="0.92278" transform="rotate(148.035 125.856 99.1558)" fill="#939495"/>
<ellipse cx="134.161" cy="106.538" rx="2.76834" ry="0.92278" transform="rotate(78.9325 134.161 106.538)" fill="#939495"/>
<ellipse cx="79.2402" cy="159.782" rx="2.76834" ry="0.92278" transform="rotate(117.167 79.2402 159.782)" fill="#939495"/>
<ellipse cx="112.46" cy="120.102" rx="2.76834" ry="0.92278" transform="rotate(117.167 112.46 120.102)" fill="#939495"/>
<ellipse cx="141.058" cy="118.227" rx="2.76834" ry="0.92278" transform="rotate(-10.4774 141.058 118.227)" fill="#939495"/>
<ellipse cx="78.7905" cy="152.688" rx="2.76834" ry="0.92278" transform="rotate(147.701 78.7905 152.688)" fill="#939495"/>
<ellipse cx="112.011" cy="113.008" rx="2.76834" ry="0.92278" transform="rotate(147.701 112.011 113.008)" fill="#939495"/>
<ellipse cx="135.715" cy="122.916" rx="2.76834" ry="0.92278" transform="rotate(20.0569 135.715 122.916)" fill="#939495"/>
<ellipse cx="100.983" cy="139.778" rx="2.76834" ry="0.92278" transform="rotate(170.98 100.983 139.778)" fill="#939495"/>
<ellipse cx="117.593" cy="133.318" rx="2.76834" ry="0.92278" transform="rotate(129.622 117.593 133.318)" fill="#939495"/>
<ellipse cx="90.0754" cy="124.698" rx="2.76834" ry="0.92278" transform="rotate(-118.209 90.0754 124.698)" fill="#939495"/>
<ellipse cx="83.4811" cy="119.693" rx="2.76834" ry="0.92278" transform="rotate(-166.069 83.4811 119.693)" fill="#939495"/>
<circle cx="92.5677" cy="117.208" r="2.76834" fill="#A5A5A5"/>
<circle cx="83.3397" cy="138.432" r="1.84556" fill="#A5A5A5"/>
<circle cx="124.41" cy="108.45" r="2.76834" transform="rotate(143.382 124.41 108.45)" fill="#A5A5A5"/>
<circle cx="144.238" cy="108.711" r="1.1812" transform="rotate(143.382 144.238 108.711)" fill="#A5A5A5"/>
<circle cx="107.327" cy="133.626" r="1.1812" transform="rotate(143.382 107.327 133.626)" fill="#A5A5A5"/>
<circle cx="104.151" cy="128.904" r="1.1812" transform="rotate(-6.41456 104.151 128.904)" fill="#A5A5A5"/>
<circle cx="111.023" cy="91.3707" r="1.84556" fill="#A5A5A5"/>
<circle cx="98.1043" cy="116.286" r="1.84556" fill="#A5A5A5"/>
<circle cx="87.4926" cy="137.971" r="1.38417" fill="#A5A5A5"/>
<circle cx="120.516" cy="112.493" r="1.84556" transform="rotate(143.382 120.516 112.493)" fill="#A5A5A5"/>
<circle cx="142.576" cy="110.436" r="0.787465" transform="rotate(143.382 142.576 110.436)" fill="#A5A5A5"/>
<circle cx="105.665" cy="135.351" r="0.787465" transform="rotate(143.382 105.665 135.351)" fill="#A5A5A5"/>
<circle cx="106.454" cy="128.249" r="0.787465" transform="rotate(-6.41456 106.454 128.249)" fill="#A5A5A5"/>
<circle cx="109.178" cy="94.139" r="0.92278" fill="#A5A5A5"/>
<circle cx="96.2587" cy="119.054" r="0.92278" fill="#A5A5A5"/>
<circle cx="86.1083" cy="140.278" r="0.92278" fill="#A5A5A5"/>
<circle cx="120.347" cy="109.171" r="0.92278" transform="rotate(143.382 120.347 109.171)" fill="#A5A5A5"/>
<circle cx="142.504" cy="109.018" r="0.393732" transform="rotate(143.382 142.504 109.018)" fill="#A5A5A5"/>
<circle cx="105.593" cy="133.933" r="0.393732" transform="rotate(143.382 105.593 133.933)" fill="#A5A5A5"/>
<circle cx="105.804" cy="129.511" r="0.393732" transform="rotate(-6.41456 105.804 129.511)" fill="#A5A5A5"/>
</svg>
