<svg width="14" height="14" viewBox="0 0 14 14" fill="none" xmlns="http://www.w3.org/2000/svg">
<path fill-rule="evenodd" clip-rule="evenodd" d="M6.27987 2.6889L8.37637 0.592404C8.40696 0.561732 8.44597 0.540835 8.48846 0.532362C8.53094 0.523889 8.57499 0.528222 8.61501 0.544811C8.65503 0.561399 8.68922 0.589498 8.71325 0.625543C8.73728 0.661588 8.75007 0.703957 8.74999 0.747279V4.94028C8.75007 4.9836 8.73728 5.02597 8.71325 5.06201C8.68922 5.09806 8.65503 5.12616 8.61501 5.14275C8.57499 5.15934 8.53094 5.16367 8.48846 5.1552C8.44597 5.14672 8.40696 5.12583 8.37637 5.09515L6.27987 2.99865C6.2595 2.97833 6.24334 2.95419 6.23231 2.92762C6.22128 2.90104 6.2156 2.87255 6.2156 2.84378C6.2156 2.81501 6.22128 2.78651 6.23231 2.75994C6.24334 2.73336 6.2595 2.70922 6.27987 2.6889ZM3.28124 2.18753C3.1072 2.18753 2.94028 2.25667 2.81721 2.37974C2.69413 2.50281 2.62499 2.66973 2.62499 2.84378C2.62499 3.01783 2.69413 3.18475 2.81721 3.30782C2.94028 3.43089 3.1072 3.50003 3.28124 3.50003C3.45529 3.50003 3.62221 3.43089 3.74528 3.30782C3.86835 3.18475 3.93749 3.01783 3.93749 2.84378C3.93749 2.66973 3.86835 2.50281 3.74528 2.37974C3.62221 2.25667 3.45529 2.18753 3.28124 2.18753ZM1.31249 2.84378C1.3126 2.48287 1.41192 2.12893 1.59959 1.82065C1.78725 1.51237 2.05605 1.26161 2.3766 1.09577C2.69716 0.929935 3.05713 0.855403 3.41718 0.880322C3.77722 0.905241 4.12349 1.02865 4.41815 1.23707C4.7128 1.44548 4.94449 1.73088 5.0879 2.06208C5.23131 2.39327 5.28092 2.75751 5.23131 3.115C5.18169 3.47248 5.03477 3.80945 4.80659 4.08908C4.57842 4.3687 4.27776 4.58023 3.93749 4.70053V9.29953C4.3756 9.45434 4.74486 9.75906 4.98001 10.1598C5.21517 10.5606 5.30107 11.0316 5.22253 11.4895C5.14399 11.9475 4.90607 12.3629 4.55083 12.6625C4.19559 12.962 3.7459 13.1262 3.28124 13.1262C2.81659 13.1262 2.3669 12.962 2.01166 12.6625C1.65641 12.3629 1.4185 11.9475 1.33996 11.4895C1.26142 11.0316 1.34732 10.5606 1.58247 10.1598C1.81763 9.75906 2.18689 9.45434 2.62499 9.29953V4.70053C2.24106 4.56479 1.90866 4.31332 1.67359 3.98079C1.43853 3.64825 1.31237 3.25101 1.31249 2.84378ZM9.62499 2.18753H8.74999V3.50003H9.62499C9.85706 3.50003 10.0796 3.59222 10.2437 3.75631C10.4078 3.9204 10.5 4.14296 10.5 4.37503V9.29953C10.0619 9.45434 9.69263 9.75906 9.45747 10.1598C9.22232 10.5606 9.13642 11.0316 9.21496 11.4895C9.2935 11.9475 9.53141 12.3629 9.88666 12.6625C10.2419 12.962 10.6916 13.1262 11.1562 13.1262C11.6209 13.1262 12.0706 12.962 12.4258 12.6625C12.7811 12.3629 13.019 11.9475 13.0975 11.4895C13.1761 11.0316 13.0902 10.5606 12.855 10.1598C12.6199 9.75906 12.2506 9.45434 11.8125 9.29953V4.37503C11.8125 3.79487 11.582 3.23847 11.1718 2.82823C10.7616 2.418 10.2052 2.18753 9.62499 2.18753ZM10.5 11.1563C10.5 10.9822 10.5691 10.8153 10.6922 10.6922C10.8153 10.5692 10.9822 10.5 11.1562 10.5C11.3303 10.5 11.4972 10.5692 11.6203 10.6922C11.7434 10.8153 11.8125 10.9822 11.8125 11.1563C11.8125 11.3303 11.7434 11.4972 11.6203 11.6203C11.4972 11.7434 11.3303 11.8125 11.1562 11.8125C10.9822 11.8125 10.8153 11.7434 10.6922 11.6203C10.5691 11.4972 10.5 11.3303 10.5 11.1563ZM3.28124 10.5C3.1072 10.5 2.94028 10.5692 2.81721 10.6922C2.69413 10.8153 2.62499 10.9822 2.62499 11.1563C2.62499 11.3303 2.69413 11.4972 2.81721 11.6203C2.94028 11.7434 3.1072 11.8125 3.28124 11.8125C3.45529 11.8125 3.62221 11.7434 3.74528 11.6203C3.86835 11.4972 3.93749 11.3303 3.93749 11.1563C3.93749 10.9822 3.86835 10.8153 3.74528 10.6922C3.62221 10.5692 3.45529 10.5 3.28124 10.5Z" fill="#3D9A50"/>
</svg>
