<svg width="14" height="14" viewBox="0 0 16 16" fill="none" xmlns="http://www.w3.org/2000/svg">
<defs>
    <style>
        .cls-1 {
            fill: #9333ea;
            stroke-width: 0px;
        }
    </style>
</defs>
<path class="cls-1" fill-rule="evenodd" clip-rule="evenodd" d="m 5.45 5.15 c 0.72 1.44 2.19 2.35 3.8 2.35 h 1.38 c 0.41 -1.17 1.7 -1.79 2.87 -1.37 c 1.17 0.41 1.79 1.7 1.37 2.87 c -0.41 1.17 -1.7 1.79 -2.87 1.37 c -0.64 -0.23 -1.15 -0.73 -1.37 -1.37 h -1.38 c -1.62 0 -3.16 -0.68 -4.25 -1.88 v 3.51 c 1.17 0.41 1.79 1.7 1.37 2.87 c -0.41 1.17 -1.7 1.79 -2.87 1.37 c -1.17 -0.41 -1.79 -1.7 -1.37 -2.87 c 0.23 -0.64 0.73 -1.14 1.37 -1.37 v -5.26 c -1.17 -0.41 -1.79 -1.7 -1.37 -2.87 s 1.7 -1.79 2.87 -1.37 c 1.17 0.41 1.79 1.7 1.37 2.87 c -0.17 0.48 -0.49 0.88 -0.92 1.15 Z m -1.2 8.35 c 0.41 0 0.75 -0.34 0.75 -0.75 s -0.34 -0.75 -0.75 -0.75 s -0.75 0.34 -0.75 0.75 s 0.34 0.75 0.75 0.75 Z m 8.5 -4.5 c 0.41 0 0.75 -0.34 0.75 -0.75 s -0.34 -0.75 -0.75 -0.75 s -0.75 0.34 -0.75 0.75 s 0.34 0.75 0.75 0.75 Z M 5 3.25 c 0 -0.41 -0.34 -0.75 -0.75 -0.75 c -0.41 0 -0.75 0.34 -0.75 0.75 s 0.34 0.75 0.75 0.75 c 0.41 0 0.75 -0.34 0.75 -0.75 h 0 Z"/>
</svg>


