<svg width="14" height="14" viewBox="0 0 14 14" fill="none" xmlns="http://www.w3.org/2000/svg">
<path fill-rule="evenodd" clip-rule="evenodd" d="M6.19762 13.9878C7.37012 14.1216 8.23987 13.1285 8.23987 12.0776V11.6401C8.23987 10.4773 8.80512 9.78251 9.39225 9.35289C9.68012 9.14289 9.96975 9.00026 10.1964 8.90839C10.331 9.14048 10.5242 9.33313 10.7567 9.46704C10.9892 9.60095 11.2528 9.67142 11.5211 9.67139H12.3961C12.8022 9.67139 13.1917 9.51006 13.4789 9.22289C13.766 8.93573 13.9274 8.54625 13.9274 8.14014V1.57764C13.9274 1.17152 13.766 0.782045 13.4789 0.49488C13.1917 0.207715 12.8022 0.0463868 12.3961 0.0463868H11.5211C11.1991 0.0462626 10.8852 0.147661 10.6242 0.336166C10.3631 0.52467 10.1681 0.790685 10.0669 1.09639C9.6075 1.03164 9.13237 0.896887 8.55662 0.733262L8.14187 0.616887C7.13212 0.336887 5.91937 0.0463868 4.30237 0.0463868C2.80962 0.0463868 1.70362 0.179387 1.04562 1.04301C0.736746 1.44814 0.575746 1.95476 0.460246 2.50601C0.358746 2.99601 0.279996 3.59451 0.187246 4.28489L0.152246 4.55264C-0.0665043 6.18801 -0.0805043 7.45589 0.316746 8.32914C0.530246 8.79901 0.860996 9.15426 1.31075 9.37914C1.74387 9.59614 2.2435 9.67139 2.77112 9.67139H4.01537L4.00225 9.76939C3.941 10.2226 3.86487 10.7931 3.86487 11.2026C3.86487 12.0085 3.997 12.7059 4.438 13.2143C4.886 13.7296 5.53 13.9116 6.19762 13.9878ZM9.98987 2.40976C9.37212 2.33189 8.77362 2.16126 8.17687 1.99064C8.04838 1.95372 7.91975 1.91726 7.791 1.88126C6.832 1.61526 5.74787 1.35889 4.30237 1.35889C2.73262 1.35889 2.30737 1.55314 2.0895 1.83839C1.96087 2.00726 1.84887 2.28026 1.74562 2.77464C1.65375 3.21389 1.58112 3.75814 1.4875 4.46339L1.4525 4.72589C1.23375 6.37264 1.28625 7.29226 1.51112 7.78576C1.58468 7.96842 1.72256 8.11782 1.89875 8.20576C2.08075 8.29676 2.35375 8.35889 2.77112 8.35889H4.30237C4.90175 8.35889 5.4355 8.86376 5.35675 9.52701C5.3375 9.69501 5.31387 9.86826 5.29112 10.0398C5.23337 10.4668 5.17737 10.8885 5.17737 11.2026C5.17737 11.9096 5.30337 12.2089 5.42937 12.3541C5.54925 12.4915 5.78025 12.6193 6.34637 12.684C6.615 12.7146 6.92737 12.4766 6.92737 12.0776V11.6401C6.92737 9.95839 7.78312 8.90401 8.61787 8.29326C9.03687 7.98943 9.49944 7.75077 9.98987 7.58539V2.40976ZM11.5211 8.35801C11.4631 8.35801 11.4075 8.33497 11.3664 8.29394C11.3254 8.25292 11.3024 8.19728 11.3024 8.13926V1.57676C11.3024 1.51875 11.3254 1.46311 11.3664 1.42208C11.4075 1.38106 11.4631 1.35801 11.5211 1.35801H12.3961C12.4541 1.35801 12.5098 1.38106 12.5508 1.42208C12.5918 1.46311 12.6149 1.51875 12.6149 1.57676V8.13926C12.6149 8.19728 12.5918 8.25292 12.5508 8.29394C12.5098 8.33497 12.4541 8.35801 12.3961 8.35801H11.5211Z" fill="#FFA01C"/>
</svg>
