<svg width="16" height="12" viewBox="0 0 16 12" fill="none" xmlns="http://www.w3.org/2000/svg">
<path fill-rule="evenodd" clip-rule="evenodd" d="M6 0C6.14978 3.48599e-05 6.29612 0.0449156 6.42017 0.12886C6.54421 0.212805 6.64028 0.331969 6.696 0.471L10 8.731L11.304 5.471C11.3597 5.33197 11.4558 5.21281 11.5798 5.12886C11.7039 5.04492 11.8502 5.00003 12 5H15.25C15.4489 5 15.6397 5.07902 15.7803 5.21967C15.921 5.36032 16 5.55109 16 5.75C16 5.94891 15.921 6.13968 15.7803 6.28033C15.6397 6.42098 15.4489 6.5 15.25 6.5H12.508L10.696 11.028C10.6402 11.1669 10.5441 11.286 10.4201 11.3699C10.296 11.4537 10.1497 11.4986 10 11.4986C9.85027 11.4986 9.70397 11.4537 9.57993 11.3699C9.45589 11.286 9.35979 11.1669 9.304 11.028L6 2.77L4.696 6.03C4.64013 6.16884 4.54399 6.2878 4.41995 6.37155C4.29592 6.45531 4.14967 6.50005 4 6.5H0.75C0.551088 6.5 0.360322 6.42098 0.21967 6.28033C0.0790176 6.13968 0 5.94891 0 5.75C0 5.55109 0.0790176 5.36032 0.21967 5.21967C0.360322 5.07902 0.551088 5 0.75 5H3.492L5.304 0.471C5.35972 0.331969 5.45579 0.212805 5.57983 0.12886C5.70388 0.0449156 5.85022 3.48599e-05 6 0Z" fill="#7E868C"/>
</svg>
