<svg width="14" height="14" viewBox="0 0 14 14" fill="none" xmlns="http://www.w3.org/2000/svg">
<path fill-rule="evenodd" clip-rule="evenodd" d="M1.75 2.1875C1.75 1.60734 1.98047 1.05094 2.39071 0.640704C2.80094 0.230468 3.35734 0 3.9375 0L11.5938 0C11.7678 0 11.9347 0.0691404 12.0578 0.192211C12.1809 0.315282 12.25 0.482202 12.25 0.65625V11.5938C12.25 11.7678 12.1809 11.9347 12.0578 12.0578C11.9347 12.1809 11.7678 12.25 11.5938 12.25H9.40625C9.2322 12.25 9.06528 12.1809 8.94221 12.0578C8.81914 11.9347 8.75 11.7678 8.75 11.5938C8.75 11.4197 8.81914 11.2528 8.94221 11.1297C9.06528 11.0066 9.2322 10.9375 9.40625 10.9375H10.9375V9.1875H3.9375C3.7652 9.18752 3.59674 9.23842 3.45324 9.3338C3.30975 9.42919 3.19761 9.56481 3.13089 9.72367C3.06417 9.88253 3.04584 10.0576 3.07819 10.2268C3.11054 10.396 3.19214 10.552 3.31275 10.675C3.43459 10.7994 3.50202 10.9671 3.50021 11.1412C3.49841 11.3153 3.42751 11.4815 3.30313 11.6034C3.17874 11.7252 3.01105 11.7926 2.83695 11.7908C2.66284 11.789 2.49659 11.7181 2.37475 11.5938C1.97375 11.185 1.74938 10.6351 1.75 10.0625V2.1875ZM10.9375 1.3125V7.875H3.9375C3.626 7.875 3.33025 7.93975 3.0625 8.057V2.1875C3.0625 1.95544 3.15469 1.73288 3.31878 1.56878C3.48288 1.40469 3.70544 1.3125 3.9375 1.3125H10.9375ZM4.375 10.7188V13.5625C4.375 13.6031 4.38631 13.6429 4.40767 13.6775C4.42903 13.7121 4.45959 13.74 4.49592 13.7582C4.53226 13.7763 4.57294 13.784 4.6134 13.7804C4.65386 13.7767 4.6925 13.7619 4.725 13.7375L5.99375 12.7864C6.03162 12.758 6.07767 12.7426 6.125 12.7426C6.17233 12.7426 6.21839 12.758 6.25625 12.7864L7.525 13.7375C7.5575 13.7619 7.59615 13.7767 7.63661 13.7804C7.67707 13.784 7.71774 13.7763 7.75408 13.7582C7.79041 13.74 7.82097 13.7121 7.84233 13.6775C7.86369 13.6429 7.875 13.6031 7.875 13.5625V10.7188C7.875 10.6607 7.85195 10.6051 7.81093 10.5641C7.76991 10.523 7.71427 10.5 7.65625 10.5H4.59375C4.53574 10.5 4.4801 10.523 4.43907 10.5641C4.39805 10.6051 4.375 10.6607 4.375 10.7188Z" fill="#0081F1"/>
</svg>
