<svg width="24" height="24" viewBox="0 0 24 24" fill="none" xmlns="http://www.w3.org/2000/svg">
<g clip-path="url(#clip0_940_2091)">
<rect width="24" height="24" rx="12" fill="#3B82F6"/>
<path fill-rule="evenodd" clip-rule="evenodd" d="M12 2.25C6.61522 2.25 2.25 6.61522 2.25 12C2.25 17.3848 6.61522 21.75 12 21.75C17.3848 21.75 21.75 17.3848 21.75 12C21.75 6.61522 17.3848 2.25 12 2.25ZM0 12C0 5.37258 5.37258 0 12 0C18.6275 0 24 5.37258 24 12C24 18.6275 18.6275 24 12 24C5.37258 24 0 18.6275 0 12ZM9.75 11.625C9.75 11.0037 10.2537 10.5 10.875 10.5H12.375C12.9963 10.5 13.5 11.0037 13.5 11.625V15.75H13.875C14.4963 15.75 15 16.2537 15 16.875C15 17.4963 14.4963 18 13.875 18H10.875C10.2537 18 9.75 17.4963 9.75 16.875C9.75 16.2537 10.2537 15.75 10.875 15.75H11.25V12.75H10.875C10.2537 12.75 9.75 12.2463 9.75 11.625ZM12 9C12.8284 9 13.5 8.32842 13.5 7.5C13.5 6.67158 12.8284 6 12 6C11.1716 6 10.5 6.67158 10.5 7.5C10.5 8.32842 11.1716 9 12 9Z" fill="#F8F9FA"/>
</g>
<defs>
<clipPath id="clip0_940_2091">
<rect width="24" height="24" rx="12" fill="white"/>
</clipPath>
</defs>
</svg>
