<svg width="56" height="56" viewBox="0 0 56 56" fill="none" xmlns="http://www.w3.org/2000/svg">
<circle cx="28" cy="28" r="26" fill="#ECEEF0" stroke="#FBFCFD" stroke-width="4"/>
<rect width="24" height="24" transform="translate(16 17)" fill="#ECEEF0"/>
<path fill-rule="evenodd" clip-rule="evenodd" d="M24.75 25C24.3358 25 24 25.3358 24 25.75V32.25C24 32.6642 24.3358 33 24.75 33H31.25C31.6642 33 32 32.6642 32 32.25V25.75C32 25.3358 31.6642 25 31.25 25H24.75ZM25.5 31.5V26.5H30.5V31.5H25.5Z" fill="#889096"/>
<path fill-rule="evenodd" clip-rule="evenodd" d="M31.25 18C31.6642 18 32 18.3358 32 18.75V21H34.25C35.2165 21 36 21.7835 36 22.75V25H38.25C38.6642 25 39 25.3358 39 25.75C39 26.1642 38.6642 26.5 38.25 26.5H36V31.5H38.25C38.6642 31.5 39 31.8358 39 32.25C39 32.6642 38.6642 33 38.25 33H36V35.25C36 36.2165 35.2165 37 34.25 37H32V39.25C32 39.6642 31.6642 40 31.25 40C30.8358 40 30.5 39.6642 30.5 39.25V37H25.5V39.25C25.5 39.6642 25.1642 40 24.75 40C24.3358 40 24 39.6642 24 39.25V37H21.75C20.7835 37 20 36.2165 20 35.25V33H17.75C17.3358 33 17 32.6642 17 32.25C17 31.8358 17.3358 31.5 17.75 31.5H20V26.5H17.75C17.3358 26.5 17 26.1642 17 25.75C17 25.3358 17.3358 25 17.75 25H20V22.75C20 21.7835 20.7835 21 21.75 21H24V18.75C24 18.3358 24.3358 18 24.75 18C25.1642 18 25.5 18.3358 25.5 18.75V21H30.5V18.75C30.5 18.3358 30.8358 18 31.25 18ZM34.25 35.5C34.3881 35.5 34.5 35.3881 34.5 35.25V22.75C34.5 22.6119 34.3881 22.5 34.25 22.5H21.75C21.6119 22.5 21.5 22.6119 21.5 22.75V35.25C21.5 35.3881 21.6119 35.5 21.75 35.5H34.25Z" fill="#889096"/>
</svg>
