<svg id="icon" width="18" height="18" viewBox="0 0 18 18" fill="none" xmlns="http://www.w3.org/2000/svg">
<path stroke="currentColor" d="M9 2.62848C9.61079 1.93646 10.5044 1.5 11.5 1.5C13.341 1.5 14.8333 2.99238 14.8333 4.83333C14.8333 6.67428 13.341 8.16667 11.5 8.16667C10.5044 8.16667 9.61079 7.7302 9 7.03819M11.5 16.5H1.5V15.6667C1.5 12.9052 3.73858 10.6667 6.5 10.6667C9.26142 10.6667 11.5 12.9052 11.5 15.6667V16.5ZM11.5 16.5H16.5V15.6667C16.5 12.9052 14.2614 10.6667 11.5 10.6667C10.5893 10.6667 9.73543 10.9102 9 11.3356M9.83333 4.83333C9.83333 6.67428 8.34095 8.16667 6.5 8.16667C4.65905 8.16667 3.16667 6.67428 3.16667 4.83333C3.16667 2.99238 4.65905 1.5 6.5 1.5C8.34095 1.5 9.83333 2.99238 9.83333 4.83333Z" stroke-width="1.66667" stroke-linecap="round" stroke-linejoin="round"/>
</svg>


