<svg width="14" height="15" viewBox="0 0 14 15" fill="none" xmlns="http://www.w3.org/2000/svg">
<path d="M3.33337 4.72924L3 4.84707V5.20066V9.79968V10.1533L3.33337 10.2711C3.90451 10.473 4.3125 11.0177 4.3125 11.6564C4.3125 12.4676 3.65491 13.1252 2.84375 13.1252C2.03259 13.1252 1.375 12.4676 1.375 11.6564C1.375 11.0177 1.78299 10.473 2.35413 10.2711L2.6875 10.1533V9.79968V5.20066V4.84707L2.35413 4.72924C1.78299 4.52737 1.375 3.98265 1.375 3.34393C1.375 2.53277 2.03258 1.87518 2.84375 1.87518C3.65492 1.87518 4.3125 2.53277 4.3125 3.34393C4.3125 3.98265 3.90451 4.52737 3.33337 4.72924ZM9.625 3.50018H9.25V3.18768H9.625C10.557 3.18768 11.3125 3.94321 11.3125 4.87518V9.79968V10.1533L11.6459 10.2711C12.217 10.473 12.625 11.0177 12.625 11.6564C12.625 12.4676 11.9674 13.1252 11.1562 13.1252C10.3451 13.1252 9.6875 12.4676 9.6875 11.6564C9.6875 11.0177 10.0955 10.473 10.6666 10.2711L11 10.1533V9.79968V4.87518C11 4.1158 10.3844 3.50018 9.625 3.50018ZM8.24999 4.7618L6.8321 3.34393L8.24999 1.92603V4.7618ZM2.84375 2.18768C2.20517 2.18768 1.6875 2.70536 1.6875 3.34393C1.6875 3.98251 2.20517 4.50018 2.84375 4.50018C3.48233 4.50018 4 3.98251 4 3.34393C4 2.70536 3.48233 2.18768 2.84375 2.18768ZM2.84375 10.5002C2.20517 10.5002 1.6875 11.0179 1.6875 11.6564C1.6875 12.295 2.20517 12.8127 2.84375 12.8127C3.48233 12.8127 4 12.295 4 11.6564C4 11.0179 3.48233 10.5002 2.84375 10.5002ZM11.1562 10.5002C10.5177 10.5002 10 11.0179 10 11.6564C10 12.295 10.5177 12.8127 11.1562 12.8127C11.7948 12.8127 12.3125 12.295 12.3125 11.6564C12.3125 11.0179 11.7948 10.5002 11.1562 10.5002Z" stroke="#F8F9FA"/>
</svg>


