<svg width="44" height="44" viewBox="0 0 44 44" fill="none" xmlns="http://www.w3.org/2000/svg">
<g id="Solid/Brands/Twitter">
<path id="Vector" d="M39.3828 11.7108C39.4857 11.5673 39.3337 11.3822 39.1691 11.446C37.9993 11.8994 36.7768 12.2053 35.5297 12.356C36.9183 11.5265 37.9898 10.2638 38.5839 8.76878C38.6444 8.61648 38.4781 8.48048 38.3347 8.55971C37.0442 9.27241 35.6523 9.78561 34.2066 10.0812C34.1461 10.0935 34.0837 10.0729 34.0412 10.0281C32.9562 8.88329 31.528 8.12104 29.9711 7.85764C28.3815 7.5887 26.7475 7.85499 25.3255 8.61474C23.9035 9.37449 22.7739 10.5847 22.1139 12.0556C21.4863 13.4542 21.3169 15.0132 21.6265 16.5104C21.6505 16.6266 21.5596 16.7363 21.4412 16.7289C18.6282 16.5542 15.8797 15.806 13.3652 14.5294C10.857 13.256 8.63592 11.4845 6.83725 9.32419C6.75742 9.22831 6.60613 9.24072 6.54796 9.35109C5.98828 10.4131 5.69524 11.5969 5.69604 12.8C5.69376 13.9976 5.98766 15.1771 6.55155 16.2337C7.11543 17.2902 7.93182 18.1909 8.92802 18.8555C7.87154 18.8268 6.83566 18.5656 5.89359 18.0921C5.77219 18.031 5.62656 18.1179 5.63287 18.2537C5.70633 19.8328 6.28605 21.4181 7.2895 22.6344C8.35734 23.9287 9.83947 24.8145 11.4852 25.1419C10.8517 25.3347 10.194 25.4364 9.5318 25.4438C9.17141 25.4396 8.81173 25.413 8.45483 25.3642C8.3225 25.3461 8.21444 25.4718 8.26077 25.5971C8.75163 26.9245 9.61881 28.0828 10.759 28.9282C11.978 29.8322 13.4485 30.3336 14.9658 30.3628C12.4037 32.3788 9.24036 33.4791 5.98017 33.4883C5.64517 33.4893 5.31032 33.4785 4.97627 33.4557C4.78801 33.4429 4.70144 33.6937 4.8637 33.79C8.04022 35.6751 11.6709 36.6715 15.3742 36.667C18.1084 36.6954 20.8209 36.1786 23.3532 35.147C25.8855 34.1154 28.1868 32.5895 30.1227 30.6585C32.0587 28.7275 33.5905 26.4301 34.6286 23.9005C35.6668 21.3708 36.1904 18.6597 36.169 15.9254V15.0733C36.169 15.0173 36.1956 14.9646 36.2403 14.9308C37.4448 14.0213 38.5041 12.9355 39.3828 11.7108Z" fill="white"/>
</g>
</svg>
