<svg width="43" height="44" viewBox="0 0 43 44" fill="none" xmlns="http://www.w3.org/2000/svg">
<g id="Solid/Brands/Linkedin">
<g id="Union">
<path d="M8.62371 3.98218C6.5396 3.98218 4.8501 5.67168 4.8501 7.75579C4.8501 9.83989 6.5396 11.5294 8.62371 11.5294C10.7078 11.5294 12.3973 9.83989 12.3973 7.75579C12.3973 5.67168 10.7078 3.98218 8.62371 3.98218Z" fill="white"/>
<path d="M5.07207 14.6371C4.94948 14.6371 4.8501 14.7365 4.8501 14.859V37.9447C4.8501 38.0673 4.94948 38.1666 5.07207 38.1666H12.1753C12.2979 38.1666 12.3973 38.0673 12.3973 37.9447V14.859C12.3973 14.7365 12.2979 14.6371 12.1753 14.6371H5.07207Z" fill="white"/>
<path d="M16.6149 14.6371C16.4923 14.6371 16.3929 14.7365 16.3929 14.859V37.9447C16.3929 38.0672 16.4923 38.1666 16.6149 38.1666H23.7181C23.8407 38.1666 23.9401 38.0672 23.9401 37.9447V25.5139C23.9401 24.6309 24.2909 23.784 24.9154 23.1595C25.5398 22.5351 26.3867 22.1843 27.2698 22.1843C28.1529 22.1843 28.9998 22.5351 29.6242 23.1595C30.2486 23.784 30.5994 24.6309 30.5994 25.5139V37.9447C30.5994 38.0672 30.6988 38.1666 30.8214 38.1666H37.9247C38.0473 38.1666 38.1466 38.0672 38.1466 37.9447V22.6376C38.1466 18.3281 34.3986 14.9567 30.1108 15.3465C28.7884 15.4667 27.481 15.7955 26.2602 16.3187L23.9401 17.313V14.859C23.9401 14.7365 23.8407 14.6371 23.7181 14.6371H16.6149Z" fill="white"/>
</g>
</g>
</svg>
