<?xml version="1.0" encoding="utf-8"?><!-- Uploaded to: SVG Repo, www.svgrepo.com, Generator: SVG Repo Mixer Tools -->
<svg width="13" height="13" viewBox="0 0 80 80" fill="none" xmlns="http://www.w3.org/2000/svg">
<path d="M40.0001 70.4762C56.8316 70.4762 70.4763 56.8315 70.4763 40C70.4763 23.1685 56.8316 9.5238 40.0001 9.5238C23.1686 9.5238 9.52393 23.1685 9.52393 40C9.52393 56.8315 23.1686 70.4762 40.0001 70.4762Z" fill="url(#paint0_radial)"/>
<path opacity="0.5" d="M40.0001 70.4762C56.8316 70.4762 70.4763 56.8315 70.4763 40C70.4763 23.1685 56.8316 9.5238 40.0001 9.5238C23.1686 9.5238 9.52393 23.1685 9.52393 40C9.52393 56.8315 23.1686 70.4762 40.0001 70.4762Z" fill="url(#paint1_radial)"/>
<path d="M53.4671 50.8191C53.2195 50.781 52.9529 50.8572 52.7814 51.0286C49.5052 54.0953 44.4576 55.7524 40.6481 55.7524H40.0005H39.3529C35.5433 55.7524 30.4957 54.0953 27.2195 51.0286C27.0291 50.8572 26.7814 50.781 26.5338 50.8191C26.2672 50.8762 26.1338 51.1619 26.2672 51.3905C29.0671 56.2286 34.2291 59.2191 39.8481 59.2191H40.0195H40.191C45.81 59.2191 50.9719 56.2286 53.7719 51.3905C53.8671 51.1619 53.7338 50.8762 53.4671 50.8191Z" fill="#643800"/>
<path d="M53.4671 50.8191C53.2195 50.781 52.9529 50.8572 52.7814 51.0286C49.5052 54.0953 44.4576 55.7524 40.6481 55.7524H40.0005H39.3529C35.5433 55.7524 30.4957 54.0953 27.2195 51.0286C27.0291 50.8572 26.7814 50.781 26.5338 50.8191C26.2672 50.8762 26.1338 51.1619 26.2672 51.3905C26.2862 51.4476 26.3243 51.4857 26.3624 51.5238C26.6291 51.3714 26.9148 51.2191 27.2005 51.5429C30.3052 55.0286 34.9148 57.1238 39.8481 57.1238H40.0195H40.191C45.1624 57.1238 49.7909 55.0095 52.8957 51.4667C53.1814 51.1429 53.4481 51.2953 53.6957 51.4667C53.7148 51.4286 53.7338 51.4095 53.7529 51.3714C53.8671 51.1619 53.7338 50.8762 53.4671 50.8191Z" fill="url(#paint2_linear)"/>
<path d="M33.2946 24.2093C33.2946 22.9903 31.9803 22.2284 29.6946 22.2284C27.7708 22.2284 23.5231 23.2951 20.6089 27.0474C20.0755 27.7332 20.8946 28.1141 21.4279 27.676C23.2184 26.1522 28.0374 24.1903 31.7898 24.6093C33.2946 24.7617 33.2946 24.2093 33.2946 24.2093Z" fill="url(#paint3_linear)"/>
<path d="M46.7056 24.2093C46.7056 22.9903 48.0199 22.2284 50.3056 22.2284C52.2294 22.2284 56.477 23.2951 59.3913 27.0474C59.9246 27.7332 59.1056 28.1141 58.5722 27.676C56.7818 26.1522 51.9627 24.1903 48.2103 24.6093C46.7056 24.7617 46.7056 24.2093 46.7056 24.2093Z" fill="url(#paint4_linear)"/>
<path opacity="0.5" d="M29.9616 28.7429C26.514 27.6953 19.0473 27.7144 14.4949 28.2287C13.2568 28.362 12.3616 28.5144 11.6949 28.6287C11.1045 30.0953 10.6283 31.6382 10.2664 33.2191C10.8759 33.543 11.714 34.0953 11.7711 34.7049C12.6283 43.0477 15.2759 46.0382 15.2759 46.0382C17.6568 49.2382 30.3806 49.1811 34.1521 44.9715C38.8759 39.6953 36.0187 33.7906 39.4473 33.7906V32.2096C36.533 32.2096 34.7997 30.1906 29.9616 28.7429ZM30.9902 44.3239C28.0187 46.1334 19.8092 46.3239 17.714 42.9144C15.6378 39.5239 15.0473 34.9334 15.9425 31.9049C16.8378 28.8763 21.3902 29.2572 25.2759 29.5239C31.2568 29.962 35.5426 32.1715 35.4092 35.4096C35.2949 37.8668 34.9521 41.9239 30.9902 44.3239Z" fill="url(#paint5_radial)"/>
<path d="M54.6481 29.5429C58.5338 29.2571 63.0862 28.8952 63.9814 31.9238C64.8766 34.9524 64.2862 39.5238 62.21 42.9333C60.1338 46.3429 51.9052 46.1524 48.9338 44.3429C44.9719 41.9429 44.629 37.8857 44.5147 35.4286C44.3814 32.1714 48.6671 29.9619 54.6481 29.5429Z" fill="url(#paint6_linear)"/>
<path opacity="0.5" d="M68.2851 28.6287C67.6375 28.5144 66.7232 28.362 65.4851 28.2287C60.9518 27.7144 53.4851 27.6953 50.0184 28.7429C45.1994 30.1906 43.466 32.2096 40.5327 32.2096V33.7906C43.9613 33.7906 41.1041 39.7144 45.828 44.9715C49.5994 49.1811 62.3232 49.2382 64.7041 46.0382C64.7041 46.0382 67.3518 43.0477 68.2089 34.7049C68.266 34.0763 69.1041 33.5239 69.7137 33.2191C69.3518 31.6382 68.8756 30.1144 68.2851 28.6287ZM62.1899 42.9144C60.1137 46.3049 51.8851 46.1334 48.9137 44.3239C44.9518 41.9239 44.6089 37.8668 44.4946 35.4096C44.3613 32.1715 48.647 29.962 54.628 29.5239C58.5137 29.2382 63.066 28.8763 63.9613 31.9049C64.8565 34.9525 64.2851 39.5239 62.1899 42.9144Z" fill="url(#paint7_radial)"/>
<path d="M69.2194 27.1238C69.2194 27.1238 68.2479 26.7429 64.9146 26.3619C60.3813 25.8477 52.9146 25.8286 49.4479 26.8762C44.6289 28.3238 42.8956 30.3429 39.9622 30.3429C37.0289 30.3429 35.2956 28.3238 30.4575 26.8572C27.0098 25.8096 19.5432 25.8286 14.9908 26.3429C11.6765 26.7238 10.686 27.1048 10.686 27.1048C10.686 27.4286 10.686 27.8096 10.7051 28.2286C10.7051 28.2286 12.7622 28.5715 12.7813 28.7619C12.7813 28.8572 10.7622 29.0476 10.7622 29.0476C10.8003 29.3905 10.8575 29.7524 10.9337 30.1334L11.7337 30.5143C12.3622 30.8 12.7813 31.4096 12.8384 32.0953C13.6956 40.4381 16.3432 43.8095 16.3432 43.8095C18.7241 47.0095 29.9241 48.0953 33.6956 43.8857C38.4194 38.6095 36.5146 33.8476 39.9432 33.8476C43.3717 33.8476 41.467 38.6286 46.1908 43.8857C49.9622 48.0953 61.1622 47.0095 63.5432 43.8095C63.5432 43.8095 66.1908 40.4381 67.0479 32.0953C67.1241 31.4096 67.5432 30.8 68.1527 30.5143L68.9527 30.1334C69.0289 29.7524 69.086 29.3905 69.1241 29.0476C69.1241 29.0476 67.2384 28.8572 67.2575 28.7619C67.2765 28.5715 69.2003 28.2286 69.2003 28.2286C69.2384 27.8096 69.2384 27.4286 69.2194 27.1238ZM30.9908 42.9905C28.0194 44.8 19.8098 44.9905 17.7146 41.581C15.6384 38.1905 15.0479 33.6 15.9432 30.5715C16.8384 27.5429 21.3908 27.9238 25.2765 28.1905C31.2575 28.6286 35.5432 30.8381 35.4098 34.0762C35.2956 36.5334 34.9527 40.5905 30.9908 42.9905ZM62.1908 41.581C60.1146 44.9715 51.886 44.8 48.9146 42.9905C44.9527 40.5905 44.6098 36.5334 44.4956 34.0762C44.3622 30.8381 48.6479 28.6286 54.6289 28.1905C58.5146 27.9048 63.067 27.5429 63.9622 30.5715C64.8575 33.6191 64.286 38.1905 62.1908 41.581Z" fill="url(#paint8_linear)"/>
<path d="M30.9915 42.9907C28.0201 44.8002 19.8106 44.9907 17.7154 41.5812C15.963 38.724 15.2773 35.0288 15.6392 32.1335C15.6392 32.1526 15.6201 32.1526 15.6201 32.1716C15.2963 35.2955 15.8677 38.9716 17.582 42.0002C19.6963 45.7336 28.0582 45.524 31.0868 43.5431C34.1915 41.505 34.9915 38.6097 35.2392 36.0574C34.9344 38.3812 34.0011 41.1621 30.9915 42.9907Z" fill="url(#paint9_linear)"/>
<path opacity="0.75" d="M41.8477 33.8475C41.9048 32.857 42.1334 31.8666 42.5334 30.9713L43.162 29.5428C42.1143 30.0189 41.1239 30.3428 39.962 30.3428C38.8001 30.3428 37.8096 30.0189 36.762 29.5428L37.3905 30.9713C37.7905 31.8856 38.0191 32.857 38.0762 33.8475L38.1334 34.7618C38.5143 34.1713 39.0477 33.8285 39.962 33.8285C40.8763 33.8285 41.4096 34.1713 41.7905 34.7618L41.8477 33.8475Z" fill="url(#paint10_radial)"/>
<path opacity="0.75" d="M15.9435 30.9906C16.8388 27.962 21.3912 28.3429 25.2769 28.6096C31.0483 29.0287 35.2388 31.0858 35.4102 34.1525C35.4102 34.1334 35.4102 34.0953 35.4102 34.0763C35.5435 30.8382 31.2578 28.6287 25.2769 28.1906C21.3912 27.9049 16.8388 27.543 15.9435 30.5715C15.6578 31.562 15.5245 32.7049 15.5435 33.9239C15.5626 32.8572 15.6959 31.8668 15.9435 30.9906Z" fill="#000000"/>
<path d="M10.7053 28.2288C10.7244 28.4764 10.7434 28.7621 10.7815 29.0478H13.8101C14.2672 29.0478 14.6291 28.6859 14.6291 28.2288H10.7053Z" fill="url(#paint11_linear)"/>
<path d="M48.9144 42.9907C51.8858 44.8002 60.0953 44.9907 62.1906 41.5812C63.9429 38.724 64.6286 35.0288 64.2667 32.1335C64.2667 32.1526 64.2858 32.1526 64.2858 32.1716C64.6096 35.2955 64.0382 38.9716 62.3239 42.0002C60.2096 45.7336 51.8477 45.524 48.8191 43.5431C45.7144 41.505 44.9144 38.6097 44.6667 36.0574C44.9906 38.3812 45.9048 41.1621 48.9144 42.9907Z" fill="url(#paint12_linear)"/>
<path opacity="0.75" d="M63.9621 30.9906C63.0669 27.962 58.5145 28.3429 54.6288 28.6096C48.8574 29.0287 44.6669 31.0858 44.4955 34.1525C44.4955 34.1334 44.4955 34.0953 44.4955 34.0763C44.3621 30.8382 48.6478 28.6287 54.6288 28.1906C58.5145 27.9049 63.0669 27.543 63.9621 30.5715C64.2478 31.562 64.3812 32.7049 64.3621 33.9239C64.3621 32.8572 64.2288 31.8668 63.9621 30.9906Z" fill="#000000"/>
<path d="M69.22 28.2288C69.2009 28.4764 69.1819 28.7621 69.1438 29.0478H66.1152C65.6581 29.0478 65.2961 28.6859 65.2961 28.2288H69.22Z" fill="url(#paint13_linear)"/>
<path d="M37.4667 30.9715L36.8382 29.5429C35.2382 28.8191 33.4477 27.7334 30.5334 26.8572C27.0858 25.8096 19.6191 25.8286 15.0667 26.3429C11.7524 26.7238 10.762 27.1048 10.762 27.1048C10.762 27.4286 10.762 27.8096 10.781 28.2286C17.8667 27.6191 26.4382 26.2096 36.5334 30.8572C36.8001 30.9905 37.1429 31.0286 37.4858 31.0096C37.4858 30.9905 37.4667 30.9715 37.4667 30.9715Z" fill="url(#paint14_radial)"/>
<path d="M42.6101 30.9715L43.2387 29.5429C44.8387 28.8191 46.6292 27.7334 49.5434 26.8572C52.9911 25.8096 60.4577 25.8286 65.0101 26.3429C68.3244 26.7238 69.3149 27.1048 69.3149 27.1048C69.3339 27.4286 69.353 27.7905 69.3339 28.2096C62.2482 27.6 53.6768 26.1905 43.5815 30.8381C43.3149 30.9715 42.972 31.0095 42.6292 30.9905C42.6101 30.9905 42.6101 30.9715 42.6101 30.9715Z" fill="url(#paint15_radial)"/>
<path d="M28.1521 40.9141C29.7721 40.9141 31.0854 38.9271 31.0854 36.476C31.0854 34.0249 29.7721 32.0379 28.1521 32.0379C26.5321 32.0379 25.2188 34.0249 25.2188 36.476C25.2188 38.9271 26.5321 40.9141 28.1521 40.9141Z" fill="url(#paint16_radial)"/>
<path d="M28.1521 33.5427C29.4092 33.5427 30.514 34.6475 31.0854 36.2665C31.0473 33.8665 29.7521 31.9427 28.1521 31.9427C26.5521 31.9427 25.2568 33.8665 25.2188 36.2665C25.7902 34.6475 26.8759 33.5427 28.1521 33.5427Z" fill="url(#paint17_linear)"/>
<path d="M51.8471 40.9141C53.4672 40.9141 54.7805 38.9271 54.7805 36.476C54.7805 34.0249 53.4672 32.0379 51.8471 32.0379C50.2271 32.0379 48.9138 34.0249 48.9138 36.476C48.9138 38.9271 50.2271 40.9141 51.8471 40.9141Z" fill="url(#paint18_radial)"/>
<path d="M51.8471 33.5427C50.59 33.5427 49.4852 34.6475 48.9138 36.2665C48.9519 33.8665 50.2471 31.9427 51.8471 31.9427C53.4471 31.9427 54.7424 33.8665 54.7805 36.2665C54.209 34.6475 53.1233 33.5427 51.8471 33.5427Z" fill="url(#paint19_linear)"/>
<defs>
<radialGradient id="paint0_radial" cx="0" cy="0" r="1" gradientUnits="userSpaceOnUse" gradientTransform="translate(34.0039 27.649) scale(36.7656)">
<stop stop-color="#FFE030"/>
<stop offset="1" stop-color="#FFB92E"/>
</radialGradient>
<radialGradient id="paint1_radial" cx="0" cy="0" r="1" gradientUnits="userSpaceOnUse" gradientTransform="translate(34.0039 27.649) scale(28.9251)">
<stop stop-color="#FFEA5F"/>
<stop offset="1" stop-color="#FFBC47" stop-opacity="0"/>
</radialGradient>
<linearGradient id="paint2_linear" x1="40.0005" y1="52.9733" x2="40.0005" y2="57.523" gradientUnits="userSpaceOnUse">
<stop offset="0.00132565" stop-color="#3C2200"/>
<stop offset="1" stop-color="#512D00"/>
</linearGradient>
<linearGradient id="paint3_linear" x1="26.8681" y1="26.252" x2="26.8681" y2="23.0407" gradientUnits="userSpaceOnUse">
<stop offset="0.00132565" stop-color="#3C2200"/>
<stop offset="1" stop-color="#7A4400"/>
</linearGradient>
<linearGradient id="paint4_linear" x1="53.1321" y1="26.252" x2="53.1321" y2="23.0407" gradientUnits="userSpaceOnUse">
<stop offset="0.00132565" stop-color="#3C2200"/>
<stop offset="1" stop-color="#7A4400"/>
</linearGradient>
<radialGradient id="paint5_radial" cx="0" cy="0" r="1" gradientUnits="userSpaceOnUse" gradientTransform="translate(36.3997 33.7982) scale(30.7625)">
<stop stop-color="#7A4400" stop-opacity="0.5"/>
<stop offset="0.5833" stop-color="#894D00" stop-opacity="0.2069"/>
<stop offset="0.995" stop-color="#975500" stop-opacity="0"/>
</radialGradient>
<linearGradient id="paint6_linear" x1="54.4416" y1="63.1169" x2="54.4416" y2="34.925" gradientUnits="userSpaceOnUse">
<stop stop-color="white"/>
<stop offset="1" stop-color="white" stop-opacity="0"/>
</linearGradient>
<radialGradient id="paint7_radial" cx="0" cy="0" r="1" gradientUnits="userSpaceOnUse" gradientTransform="translate(66.652 33.7982) scale(30.7625)">
<stop stop-color="#7A4400" stop-opacity="0.5"/>
<stop offset="0.5833" stop-color="#894D00" stop-opacity="0.2069"/>
<stop offset="0.995" stop-color="#975500" stop-opacity="0"/>
</radialGradient>
<linearGradient id="paint8_linear" x1="39.9593" y1="37.0062" x2="39.9593" y2="15.8689" gradientUnits="userSpaceOnUse">
<stop stop-color="#242424"/>
<stop offset="1" stop-color="#8EA5A8"/>
</linearGradient>
<linearGradient id="paint9_linear" x1="25.3892" y1="36.4955" x2="25.3892" y2="52.6508" gradientUnits="userSpaceOnUse">
<stop/>
<stop offset="1" stop-color="#8EA5A8"/>
</linearGradient>
<radialGradient id="paint10_radial" cx="0" cy="0" r="1" gradientUnits="userSpaceOnUse" gradientTransform="translate(39.9231 31.5427) scale(3.59946 2.19967)">
<stop offset="0.0158651" stop-color="#8EA5A8" stop-opacity="0.25"/>
<stop offset="1" stop-color="#8EA5A8" stop-opacity="0"/>
</radialGradient>
<linearGradient id="paint11_linear" x1="14.7965" y1="28.6281" x2="11.0584" y2="28.6281" gradientUnits="userSpaceOnUse">
<stop stop-color="white"/>
<stop offset="1" stop-color="#FFBF00"/>
</linearGradient>
<linearGradient id="paint12_linear" x1="54.5298" y1="36.4955" x2="54.5298" y2="52.6508" gradientUnits="userSpaceOnUse">
<stop/>
<stop offset="1" stop-color="#8EA5A8"/>
</linearGradient>
<linearGradient id="paint13_linear" x1="65.1228" y1="28.6281" x2="68.861" y2="28.6281" gradientUnits="userSpaceOnUse">
<stop stop-color="white"/>
<stop offset="1" stop-color="#FFBF00"/>
</linearGradient>
<radialGradient id="paint14_radial" cx="0" cy="0" r="1" gradientUnits="userSpaceOnUse" gradientTransform="translate(21.9563 61.2459) scale(60.1324 35.7548)">
<stop offset="0.9647" stop-color="#8EA5A8" stop-opacity="0"/>
<stop offset="1" stop-color="#8EA5A8"/>
</radialGradient>
<radialGradient id="paint15_radial" cx="0" cy="0" r="1" gradientUnits="userSpaceOnUse" gradientTransform="translate(58.1246 61.246) rotate(180) scale(60.1325 35.7547)">
<stop offset="0.9647" stop-color="#8EA5A8" stop-opacity="0"/>
<stop offset="1" stop-color="#8EA5A8"/>
</radialGradient>
<radialGradient id="paint16_radial" cx="0" cy="0" r="1" gradientUnits="userSpaceOnUse" gradientTransform="translate(27.2546 36.593) rotate(73.8539) scale(4.30606 2.78596)">
<stop offset="0.00132565" stop-color="#7A4400"/>
<stop offset="1" stop-color="#643800"/>
</radialGradient>
<linearGradient id="paint17_linear" x1="28.1449" y1="32.0207" x2="28.1449" y2="36.1568" gradientUnits="userSpaceOnUse">
<stop offset="0.00132565" stop-color="#3C2200"/>
<stop offset="1" stop-color="#512D00"/>
</linearGradient>
<radialGradient id="paint18_radial" cx="0" cy="0" r="1" gradientUnits="userSpaceOnUse" gradientTransform="translate(50.9652 36.5938) rotate(73.8539) scale(4.30606 2.78595)">
<stop offset="0.00132565" stop-color="#7A4400"/>
<stop offset="1" stop-color="#643800"/>
</radialGradient>
<linearGradient id="paint19_linear" x1="51.8544" y1="32.0207" x2="51.8544" y2="36.1568" gradientUnits="userSpaceOnUse">
<stop offset="0.00132565" stop-color="#3C2200"/>
<stop offset="1" stop-color="#512D00"/>
</linearGradient>
</defs>
</svg>