<svg width="13" height="13" viewBox="0 0 13 13" fill="none" xmlns="http://www.w3.org/2000/svg">
<path fill-rule="evenodd" clip-rule="evenodd" d="M4.0625 1.625C3.54473 1.625 3.125 2.04473 3.125 2.5625C3.125 3.08027 3.54473 3.5 4.0625 3.5H5.79405C5.61934 2.88683 5.38747 2.44919 5.13542 2.15513C4.81289 1.77885 4.44958 1.625 4.0625 1.625ZM2 2.5625C2 2.90008 2.0811 3.21873 2.22489 3.5H1.8125C1.08763 3.5 0.5 4.08763 0.5 4.8125V6.3125C0.5 6.83607 0.806572 7.28805 1.25 7.49869V11.1875C1.25 11.9124 1.83763 12.5 2.5625 12.5H10.4375C11.1624 12.5 11.75 11.9124 11.75 11.1875V7.49869C12.1934 7.28805 12.5 6.83607 12.5 6.3125V4.8125C12.5 4.08763 11.9124 3.5 11.1875 3.5H10.7751C10.9189 3.21873 11 2.90008 11 2.5625C11 1.42342 10.0766 0.5 8.9375 0.5C8.19957 0.5 7.53164 0.814899 7.01042 1.42299C6.81856 1.64682 6.6483 1.90792 6.5 2.20478C6.3517 1.90792 6.18144 1.64682 5.98958 1.42299C5.46836 0.814899 4.80042 0.5 4.0625 0.5C2.92341 0.5 2 1.42342 2 2.5625ZM7.20595 3.5H8.9375C9.4553 3.5 9.875 3.08027 9.875 2.5625C9.875 2.04473 9.4553 1.625 8.9375 1.625C8.55042 1.625 8.18712 1.77885 7.86458 2.15513C7.61253 2.44919 7.38066 2.88683 7.20595 3.5ZM1.8125 4.625C1.70895 4.625 1.625 4.70895 1.625 4.8125V6.3125C1.625 6.41605 1.70895 6.5 1.8125 6.5H5.9375V4.625H1.8125ZM7.0625 4.625V6.5H11.1875C11.2911 6.5 11.375 6.41605 11.375 6.3125V4.8125C11.375 4.70895 11.2911 4.625 11.1875 4.625H7.0625ZM7.0625 7.625H10.625V11.1875C10.625 11.2911 10.5411 11.375 10.4375 11.375H7.0625V7.625ZM5.9375 7.625V11.375H2.5625C2.45895 11.375 2.375 11.2911 2.375 11.1875V7.625H5.9375Z" fill="#889096"/>
</svg>
