<svg width="56" height="56" viewBox="0 0 56 56" fill="none" xmlns="http://www.w3.org/2000/svg">
<circle cx="28" cy="28" r="26" fill="#F76808" stroke="#FBFCFD" stroke-width="4"/>
<path fill-rule="evenodd" clip-rule="evenodd" d="M19 19.75C19 18.2312 20.2312 17 21.75 17H36.25C36.6642 17 37 17.3358 37 17.75V38.25C37 38.6642 36.6642 39 36.25 39H30.25C29.8358 39 29.5 38.6642 29.5 38.25C29.5 37.8358 29.8358 37.5 30.25 37.5H35.5V33.5H22C21.1716 33.5 20.5 34.1716 20.5 35V35.75C20.5 36.4664 20.9306 37.084 21.5503 37.3547C21.9298 37.5206 22.1031 37.9627 21.9373 38.3423C21.7714 38.7218 21.3293 38.8951 20.9497 38.7292C19.8035 38.2284 19 37.0839 19 35.75V19.75ZM35.5 18.5V32H22C21.4536 32 20.9413 32.1461 20.5 32.4013V19.75C20.5 19.0596 21.0596 18.5 21.75 18.5H35.5Z" fill="#FEFCFB"/>
<path d="M23 35.25C23 35.1119 23.1119 35 23.25 35H28.25C28.3881 35 28.5 35.1119 28.5 35.25V40.2591C28.5 40.4634 28.2682 40.5814 28.103 40.4612L25.897 38.8569C25.8094 38.7932 25.6906 38.7932 25.603 38.8569L23.397 40.4612C23.2318 40.5814 23 40.4634 23 40.2591V35.25Z" fill="#FEFCFB"/>
</svg>
