<svg width="14" height="14" viewBox="0 0 14 14" fill="none" xmlns="http://www.w3.org/2000/svg">
<path fill-rule="evenodd" clip-rule="evenodd" d="M7 14C10.866 14 14 10.866 14 7C14 3.13401 10.866 0 7 0C3.13401 0 0 3.13401 0 7C0 10.866 3.13401 14 7 14ZM10.7131 7.39544C10.9807 7.13097 10.9798 6.6985 10.711 6.43519L7.69983 3.48547C7.31104 3.10461 6.68906 3.10462 6.30027 3.48547L3.29102 6.4333C3.02134 6.69748 3.02088 7.13151 3.28998 7.39627C3.55231 7.65436 3.97306 7.65464 4.23574 7.3969L6.29588 5.37548L6.29588 10.4958C6.29588 10.8847 6.61115 11.2 7.00005 11.2C7.38895 11.2 7.70422 10.8847 7.70422 10.4958L7.70422 5.37548L9.76834 7.39748C10.031 7.6548 10.4515 7.65389 10.7131 7.39544Z" fill="#7E868C"/>
</svg>
