<svg width="12" height="14" viewBox="0 0 12 14" fill="none" xmlns="http://www.w3.org/2000/svg">
<path fill-rule="evenodd" clip-rule="evenodd" d="M8.49994 3.99998C8.49994 4.66302 8.23655 5.29891 7.76771 5.76775C7.29887 6.23659 6.66298 6.49998 5.99994 6.49998C5.3369 6.49998 4.70102 6.23659 4.23217 5.76775C3.76333 5.29891 3.49994 4.66302 3.49994 3.99998C3.49994 3.33694 3.76333 2.70106 4.23217 2.23221C4.70102 1.76337 5.3369 1.49998 5.99994 1.49998C6.66298 1.49998 7.29887 1.76337 7.76771 2.23221C8.23655 2.70106 8.49994 3.33694 8.49994 3.99998ZM8.56094 7.07298C9.19225 6.54662 9.64608 5.83856 9.86069 5.04512C10.0753 4.25168 10.0403 3.41139 9.76036 2.63856C9.48045 1.86574 8.96926 1.19791 8.29632 0.725929C7.62339 0.253948 6.82139 0.000732422 5.99944 0.000732422C5.17749 0.000732422 4.37549 0.253948 3.70256 0.725929C3.02963 1.19791 2.51843 1.86574 2.23852 2.63856C1.95862 3.41139 1.92358 4.25168 2.13819 5.04512C2.3528 5.83856 2.80663 6.54662 3.43794 7.07298C2.45353 7.53838 1.61421 8.26274 1.00984 9.1685C0.405473 10.0743 0.0588023 11.1273 0.00694147 12.215C0.00211479 12.411 0.0742194 12.6011 0.207814 12.7445C0.341409 12.888 0.525874 12.9735 0.721706 12.9826C0.917538 12.9918 1.10917 12.9239 1.25556 12.7935C1.40195 12.6631 1.49147 12.4806 1.50494 12.285C1.55946 11.1295 2.05684 10.0394 2.89384 9.24096C3.73085 8.44251 4.84318 7.99706 5.99994 7.99706C7.1567 7.99706 8.26903 8.44251 9.10604 9.24096C9.94304 10.0394 10.4404 11.1295 10.4949 12.285C10.4974 12.3848 10.5198 12.4832 10.5608 12.5743C10.6018 12.6654 10.6605 12.7474 10.7336 12.8154C10.8067 12.8835 10.8927 12.9363 10.9865 12.9707C11.0802 13.005 11.1799 13.0204 11.2797 13.0157C11.3795 13.011 11.4773 12.9865 11.5675 12.9435C11.6577 12.9005 11.7383 12.84 11.8048 12.7654C11.8712 12.6908 11.9221 12.6037 11.9544 12.5092C11.9867 12.4146 11.9998 12.3146 11.9929 12.215C11.9409 11.1273 11.594 10.0742 10.9895 9.1684C10.3849 8.26265 9.54548 7.53834 8.56094 7.07298Z" fill="#7E868C"/>
</svg>
