<svg width="55" height="55" viewBox="0 0 55 55" fill="none" xmlns="http://www.w3.org/2000/svg">
<path d="M36.3841 35.0689L45.4092 26.7852C47.2886 25.4197 48.6613 22.2424 47.5899 20.5492C46.8329 19.3528 45.1031 18.2998 42.5 18.5L40.5 19.5L33.5 23C30 24.5 26.5 25.5 19.5 25C21 25 24.4442 24.1434 27.5 23C29.4953 22.2534 30.3771 21.8423 31.3057 21.3685C32.2555 20.8838 32.6627 19.7333 32.2333 18.7573L27.8371 8.76393C26.6397 5.07869 21.426 5.07869 20.2286 8.76393L16.3994 20.5492L4.00767 20.5492C0.132774 20.5492 -1.47833 25.5076 1.65653 27.7852L11.6816 35.0689L7.85239 46.8541C6.65498 50.5393 10.8729 53.6038 14.0077 51.3262L24.0329 44.0426L34.058 51.3262C37.1928 53.6038 41.4107 50.5394 40.2133 46.8541L36.3841 35.0689Z" fill="url(#paint0_linear_161_2366)"/>
<path d="M38.0621 2.5345C38.3843 1.66389 39.6157 1.66389 39.9379 2.53451L41.0012 5.40803C41.1024 5.68175 41.3182 5.89756 41.592 5.99885L44.4655 7.06215C45.3361 7.38431 45.3361 8.61569 44.4655 8.93785L41.592 10.0012C41.3182 10.1024 41.1024 10.3182 41.0012 10.592L39.9379 13.4655C39.6157 14.3361 38.3843 14.3361 38.0621 13.4655L36.9988 10.592C36.8976 10.3182 36.6818 10.1024 36.408 10.0012L33.5345 8.93785C32.6639 8.61569 32.6639 7.38431 33.5345 7.06215L36.408 5.99885C36.6818 5.89756 36.8976 5.68175 36.9988 5.40803L38.0621 2.5345Z" fill="#F5522A"/>
<path d="M46.0621 34.5345C46.3843 33.6639 47.6157 33.6639 47.9379 34.5345L48.7311 36.6781C48.8323 36.9518 49.0482 37.1677 49.3219 37.2689L51.4655 38.0621C52.3361 38.3843 52.3361 39.6157 51.4655 39.9379L49.3219 40.7311C49.0482 40.8323 48.8323 41.0482 48.7311 41.3219L47.9379 43.4655C47.6157 44.3361 46.3843 44.3361 46.0621 43.4655L45.2689 41.3219C45.1677 41.0482 44.9518 40.8323 44.6781 40.7311L42.5345 39.9379C41.6639 39.6157 41.6639 38.3843 42.5345 38.0621L44.6781 37.2689C44.9518 37.1677 45.1677 36.9518 45.2689 36.6781L46.0621 34.5345Z" fill="#FF9330"/>
<defs>
<linearGradient id="paint0_linear_161_2366" x1="23.9829" y1="6" x2="23.9829" y2="52.1083" gradientUnits="userSpaceOnUse">
<stop stop-color="#F44B27"/>
<stop offset="1" stop-color="#FFA14A"/>
</linearGradient>
</defs>
</svg>
