<svg width="32" height="32" viewBox="0 0 32 32" fill="none" xmlns="http://www.w3.org/2000/svg">
<path d="M5.05998 11.815C5.05998 11.815 3.68998 12.6775 3.53248 13.5375C3.37498 14.4 3.68998 15.4175 4.11998 16.0825C4.54998 16.7475 5.05998 17.2975 5.68748 17.5325C6.31498 17.7675 6.86248 17.7275 6.86248 17.7275C6.86248 17.7275 8.31248 19.3725 10.895 21.605C13.4775 23.8375 16.77 26.5 20.49 28.575C24.21 30.65 25.5425 31.16 26.56 31.16C27.5775 31.16 27.54 29.6325 27.4225 29.1625C27.305 28.6925 20.765 21.41 20.765 21.41L5.05998 11.815Z" fill="#FF8E00"/>
<path d="M7.8025 15.615L6.8225 14.5575C6.8225 14.5575 5.805 12.6375 4.865 12.6375C3.925 12.6375 3.5325 13.5375 3.5325 13.5375C3.5325 13.5375 3.415 12.5575 4.59 10.68C5.765 8.80251 7.2525 7.31251 8.585 6.37251C9.9175 5.43251 11.56 4.33501 12.6575 3.71001C13.755 3.08501 16.1425 2.30001 17.515 1.83001C18.885 1.36001 21.8625 0.772508 23.2325 1.04751C24.6025 1.32251 25.19 2.26251 25.19 3.24001C25.19 4.21751 24.955 4.88501 24.76 5.08001C24.565 5.27501 23.2725 6.37251 23.2725 6.37251L7.8025 15.615Z" fill="#F5B03E"/>
<path d="M10.55 11.4875L8.12248 13.055L7.10498 15.0525C7.10498 15.0525 7.29998 15.7175 7.61498 16.07C7.92748 16.4225 10.55 18.935 12.4275 20.54C13.8925 21.7925 17.015 24.45 17.015 24.45C17.015 24.45 17.1425 25.785 17.29 26.7225C17.4075 27.4675 17.415 28.71 18.2 28.675C19.19 28.63 18.62 26.625 19.405 26.645C20.9725 26.685 19.4175 30.925 21.1025 30.9025C22.445 30.885 21.5925 28.5675 22.265 28.1725C22.63 27.9575 23.355 28.87 24.5375 29.3875C25.9975 30.025 26.8875 30.5075 27.3575 30.2875C28.35 29.8225 26.2575 18.98 26.0225 17.14C25.7875 15.3 24.6175 5.85 24.5375 5.5375C24.4575 5.225 22.8525 5.185 22.8525 5.185L20.385 6.0475L16.86 6.5175L12.71 8.985L10.55 11.4875Z" fill="#FFCC8A"/>
<path d="M9.93752 11.095C9.16752 11.53 8.17502 11.7725 7.33752 13.1525C6.64002 14.3025 6.45502 15.48 6.95252 15.57C7.45002 15.66 7.82752 13.925 8.49002 13.265C9.55252 12.2025 10.4125 12.09 11.0225 11.525C11.6325 10.96 12.3 9.42501 14.8425 8.06751C17.805 6.48501 19.575 6.90251 20.2675 6.64251C21.1725 6.30251 21.4175 5.74751 22.55 5.51251C23.7475 5.26501 24.58 5.74251 24.58 5.74251C24.58 5.74251 24.8525 5.11001 24.49 4.81501C24.1275 4.52001 23.46 4.29001 22.345 4.51751C21.125 4.76501 20.22 5.58001 19.9725 5.60251C19.725 5.62501 17.1925 5.49001 14.185 7.20751C11.1775 8.92501 10.615 10.71 9.93752 11.095Z" fill="#CB6C22"/>
<path d="M13.395 13.83L9.35002 14.7125C9.35002 14.7125 9.28752 15.48 9.32752 15.7075C9.46252 16.475 10.48 17.6975 11.09 17.9C11.7 18.1025 12.9425 18.125 13.35 17.945C13.7575 17.765 14.9775 16.8825 15.135 16.4075C15.2925 15.9325 15.25 13.945 14.935 13.6275C14.62 13.3125 13.395 13.83 13.395 13.83Z" fill="#DB0D27"/>
<path d="M10.5475 12.565C10.115 12.9 9.2825 14.035 9.35 14.8475C9.4175 15.6625 10.82 17.085 11.2025 17.22C11.585 17.355 12.83 17.3775 13.1475 17.2875C13.465 17.1975 14.685 16.2925 14.865 15.9775C15.045 15.66 15.205 13.8975 14.91 13.5825C14.615 13.2675 13.735 12.34 13.035 12.135C12.3325 11.9325 10.955 12.2475 10.5475 12.565Z" fill="#ED6D30"/>
<path d="M20.9 16.3625C20.9 16.3625 17.32 16.105 17.275 16.33C17.23 16.555 17.1475 17.425 17.375 18.125C17.535 18.6225 17.9175 19.4825 19.0925 19.9775C20.2675 20.4725 21.3975 19.9325 21.6925 19.705C22.245 19.28 22.5975 18.755 22.6875 18.44C22.7775 18.125 20.9 16.3625 20.9 16.3625Z" fill="#DB0D27"/>
<path d="M19.16 14.485C18.6075 14.685 17.285 15.5025 17.26 16.4075C17.2375 17.3125 17.8925 18.42 18.2325 18.6675C18.5725 18.915 19.7025 19.5725 20.5375 19.5275C21.375 19.4825 22.5275 18.805 22.685 18.4425C22.8425 18.08 22.91 17.0175 22.8425 16.475C22.775 15.9325 21.6 14.7125 21.0125 14.53C20.425 14.35 19.6575 14.305 19.16 14.485Z" fill="#ED6D30"/>
<path d="M19.025 22.94C19.025 22.94 15.7475 22.035 15.7025 22.1025C15.6575 22.17 15.205 22.735 15.3175 23.0075C15.43 23.28 16.5825 24.205 17.0575 24.6125C17.5325 25.02 18.9675 25.8625 19.1375 25.8325C19.545 25.765 19.86 25.11 19.86 25.11L19.025 22.94Z" fill="#DB0D27"/>
<path d="M19.3175 21.56C18.5175 20.9725 17.35 21.0175 16.7175 21.3125C16.085 21.6075 15.7 21.99 15.6325 22.285C15.565 22.58 16.0875 23.1475 16.2925 23.305C16.495 23.4625 17.11 23.9275 17.11 23.9275C17.11 23.9275 18.0225 24.6425 18.36 24.9025C18.83 25.265 19.42 25.47 19.5775 25.4925C19.735 25.515 20.47 24.565 20.335 23.2975C20.265 22.65 19.99 22.055 19.3175 21.56Z" fill="#ED6D30"/>
<path d="M25.015 19.7525L23.795 19.7075C23.795 19.7075 23.2975 20.635 23.6375 21.675C23.915 22.525 24.4975 23.0325 25.4675 23.3025C26.44 23.575 26.9825 23.4775 26.9825 23.4775L26.9975 22.795L25.015 19.7525Z" fill="#DB0D27"/>
<path d="M26.19 18.1925C26.19 18.1925 24.685 18.015 23.9075 19.4125C23.3125 20.485 23.7275 21.38 24.2025 21.9C24.6775 22.42 25.4 22.76 25.9425 22.805C26.485 22.85 27.01 22.8075 27.01 22.8075C27.01 22.8075 26.8 21.42 26.595 20.26C26.47 19.565 26.19 18.1925 26.19 18.1925Z" fill="#ED6D30"/>
<path d="M21.805 8.405C21.805 8.405 18.89 8.495 18.7075 8.79C18.525 9.085 18.5275 10.395 18.6175 10.915C18.7075 11.435 19.5 12.7 21.0825 12.7225C22.665 12.745 23.2225 12.35 23.8375 11.155C24.4525 9.96 23.8125 8.6225 23.8125 8.6225L21.805 8.405Z" fill="#DB0D27"/>
<path d="M21.8275 7.06999C21.195 6.94749 20.3125 7.20499 19.8825 7.49999C19.4525 7.79499 18.7525 8.40499 18.7075 8.85749C18.6625 9.30999 19.07 10.62 19.2275 10.87C19.385 11.1175 20.04 11.79 20.245 11.8875C20.72 12.1125 22.03 12 22.415 11.865C22.8 11.73 23.8625 10.87 23.975 10.4175C24.0875 9.96499 24.2225 9.19749 23.7025 8.26999C23.1825 7.34249 22.415 7.18499 21.8275 7.06999Z" fill="#ED6D30"/>
<path d="M25.945 26.0425L23.3425 25.93C23.3425 25.93 22.9925 26.6325 23.0975 27.2475C23.1825 27.7575 23.605 28.4525 24.3625 28.745C24.7925 28.91 25.9175 28.8025 26.1925 28.615C26.7475 28.235 26.925 27.545 26.9075 27.19C26.9 27.005 25.945 26.0425 25.945 26.0425Z" fill="#DB0D27"/>
<path d="M25.3775 24.9375C24.7025 24.835 23.925 25.2 23.59 25.5475C23.255 25.895 23.1875 26.33 23.315 26.855C23.5475 27.815 24.1625 28.0875 24.4475 28.235C24.87 28.4525 26.03 28.41 26.395 28.1325C26.7575 27.8575 27.0325 27.3875 26.9475 26.665C26.86 25.94 26.54 25.1125 25.3775 24.9375Z" fill="#ED6D30"/>
<path d="M9 7.75749C9.0225 8.29749 9.9675 8.20498 10.34 8.16748C10.6375 8.13748 11.3825 8.07499 11.3825 7.58999C11.3825 7.10499 10.7325 7.10749 10.2475 7.12499C9.78 7.14249 8.98 7.32999 9 7.75749ZM14.0775 4.57748C14.0775 4.93248 14.4675 4.96749 14.71 4.98749C14.9525 5.00499 15.2675 4.91249 15.2875 4.63499C15.305 4.35499 15.065 4.18748 14.71 4.16999C14.3375 4.14749 14.0775 4.27748 14.0775 4.57748ZM16.4025 5.43248C16.76 5.81998 17.295 5.30248 17.4825 5.05998C17.6675 4.81748 17.705 4.44499 17.5 4.25999C17.295 4.07499 16.905 4.27748 16.645 4.51998C16.385 4.76249 16.18 5.18998 16.4025 5.43248ZM20.44 3.45999C20.875 3.95249 21.5925 3.12499 21.89 2.84499C22.1875 2.56499 22.43 2.17499 22.15 1.85999C21.87 1.54499 21.2375 1.98999 20.9975 2.26999C20.755 2.54749 20.16 3.14499 20.44 3.45999ZM6.73 11.8125C7.1525 11.9125 7.29 11.4125 7.3625 11.03C7.4375 10.64 7.4375 10.2675 7.12 10.2125C6.76 10.15 6.5625 10.51 6.505 10.8625C6.4575 11.18 6.34 11.72 6.73 11.8125Z" fill="#FCC12B"/>
</svg>
