<?xml version="1.0" encoding="UTF-8"?>
<svg width="13" height="13" viewBox="0,0,264.583,230.948" xmlns="http://www.w3.org/2000/svg">
 <metadata/>
 <g transform="translate(-67 -200)">
  <path d="m263.837 306.59 21.9331-37.9944c1.2377-2.12998.48933-4.83565-1.61189-6.07335-2.1012-1.23768-4.83565-.5181-6.04456 1.61189l-22.221 38.4837c-16.9536-7.74281-36.0371-12.0604-56.5599-12.0604-20.5227 0-39.6063 4.31754-56.5599 12.0604l-22.221-38.4837c-1.2377-2.12999-3.94336-2.84957-6.07335-1.61189-2.13 1.2377-2.84959 3.94337-1.61189 6.07335l21.9331 37.9944c-37.8217 20.494-63.4392 58.7762-67.6703 103.592h264.407c-4.2312-44.8161-29.8487-83.0984-67.6991-103.592zm-125.209 66.4614c-6.13092 0-11.0817-4.97957-11.0817-11.0817 0-6.13093 4.97957-11.0817 11.0817-11.0817 6.13092 0 11.0817 4.97956 11.0817 11.0817.0289 6.10212-4.95079 11.0817-11.0817 11.0817zm121.381 0c-6.13091 0-11.0817-4.97957-11.0817-11.0817 0-6.13093 4.97958-11.0817 11.0817-11.0817 6.13093 0 11.0817 4.97956 11.0817 11.0817.0288 6.10212-4.95077 11.0817-11.0817 11.0817z" fill="#32de84" stroke-width=".288"/>
 </g>
</svg>
