<?xml version="1.0" encoding="iso-8859-1"?>
<!-- Uploaded to: SVG Repo, www.svgrepo.com, Generator: SVG Repo Mixer Tools -->
<svg version="1.1" width="13" height="13" id="Layer_1" xmlns="http://www.w3.org/2000/svg" xmlns:xlink="http://www.w3.org/1999/xlink" 
	 viewBox="0 0 501.333 501.333" xml:space="preserve">
<path style="fill:#E0E0DF;" d="M77.333,0v359.467l274.133,45.867c-2.133,7.467-4.267,16-4.267,24.533
	c0,39.467,34.133,71.467,76.8,71.467s76.8-32,76.8-71.467V0H77.333z"/>
<g>
	<rect x="145.6" y="73.6" style="fill:#60C3AB;" width="288" height="21.333"/>
	<rect x="145.6" y="169.6" style="fill:#60C3AB;" width="288" height="21.333"/>
	<rect x="145.6" y="265.6" style="fill:#60C3AB;" width="288" height="21.333"/>
</g>
<path style="fill:#637888;" d="M347.2,429.867c0-39.467,34.133-71.467,76.8-71.467H77.333c-42.667,0-76.8,32-76.8,71.467
	s34.133,71.467,76.8,71.467H424C381.333,501.333,347.2,469.333,347.2,429.867z"/>
</svg>