<?xml version="1.0" encoding="utf-8"?>

<!-- Uploaded to: SVG Repo, www.svgrepo.com, Generator: SVG Repo Mixer Tools -->
<svg width="13" height="13" viewBox="0 0 128 128" xmlns="http://www.w3.org/2000/svg" xmlns:xlink="http://www.w3.org/1999/xlink" aria-hidden="true" role="img" class="iconify iconify--noto" preserveAspectRatio="xMidYMid meet">

<radialGradient id="IconifyId17ecdb2904d178eab14350" cx="63.6" cy="-2088.9" r="56.96" gradientTransform="matrix(1 0 0 -1 0 -2026)" gradientUnits="userSpaceOnUse">

<stop offset=".5" stop-color="#fde030">

</stop>

<stop offset=".919" stop-color="#f7c02b">

</stop>

<stop offset="1" stop-color="#f4a223">

</stop>

</radialGradient>

<path d="M63.6 118.8c-27.9 0-58-17.5-58-55.9S35.7 7 63.6 7c15.5 0 29.8 5.1 40.4 14.4c11.5 10.2 17.6 24.6 17.6 41.5s-6.1 31.2-17.6 41.4c-10.6 9.3-25 14.5-40.4 14.5z" fill="url(#IconifyId17ecdb2904d178eab14350)">

</path>

<path d="M102.07 71.62c-1.33-2.46-4.14-3.53-7.14-2.6c-8.96 2.8-20.47 4.42-31.59 4.43c-11.12-.01-22.63-1.63-31.59-4.43c-2.99-.93-5.81.14-7.14 2.6c-1.36 2.52-.37 5.42.77 7.94c6.42 14.1 20.57 22.54 37.87 22.59h.16c17.3-.05 31.45-8.49 37.87-22.59c1.16-2.52 2.15-5.43.79-7.94z" fill="#35220b">

</path>

<g fill="#35220b">

<path d="M63.42 100.89h-.16h.16z">

</path>

<path d="M63.49 74.7h-.3h.3z">

</path>

</g>

<g fill="#35220b">

<path d="M63.49 74.7h-.3h.3z">

</path>

<path d="M63.42 100.89h-.16h.16z">

</path>

</g>

<path d="M78.22 97.17c9.37-3.29 16.75-9.76 20.8-18.66c1.26-2.77 1.51-4.48.85-5.71c-.76-1.42-2.35-1.98-4.19-1.4c-9.14 2.86-20.84 4.52-32.16 4.55h-.35c-11.31-.03-23.01-1.68-32.16-4.55c-.48-.15-.95-.23-1.38-.23c-1.24 0-2.24.58-2.81 1.62c-.67 1.24-.41 2.94.85 5.71c3.98 8.73 11.17 15.12 20.29 18.47c4.3-3.41 9.37-5.22 15.46-5.22c6.11.01 10.66 1.95 14.8 5.42z" fill="none">

</path>

<path d="M79.35 98.14c-.37-.34-.75-.65-1.13-.97c-4.15-3.47-8.69-5.41-14.8-5.41c-6.09 0-11.16 1.8-15.46 5.22c-.39.31-.78.61-1.16.94c-.31.35-.57.68-.8 1c5.21 2.07 11.03 3.2 17.27 3.22h.16c5.96-.02 11.54-1.05 16.57-2.95c-.18-.34-.39-.68-.65-1.05z" fill="#ed7770">

</path>

<path d="M94.93 69.02c-8.96 2.8-20.47 4.42-31.59 4.43c-11.12-.01-22.63-1.63-31.59-4.43c-2.99-.93-5.81.14-7.14 2.6c-.21.39-.35.79-.45 1.2c.33.17.71.34 1.16.52c12.1 6.17 25.16 8.93 38.8 8.93c13.09 0 25.64-2.55 37.33-8.21c.47-.2.86-.39 1.21-.57c-.09-.64-.27-1.26-.6-1.87c-1.32-2.46-4.13-3.54-7.13-2.6z" fill="#ffffff">

</path>

<path d="M62.84 75.06c8.17.14 14.82-1.1 22.9-2.64c2.02-.39 4.03-.84 6.02-1.37l1.49-.41c.45-.12.79-.2 1.19-.23c.76-.07 1.5.04 2.14.31c1.27.53 3.08 2.13 3.53 3.41c1.19 3.4-.74 9.34-.26 8.35c.02-.03 1.23-2.07 1.24-2.1c.81-1.95 1.87-4.16 1.61-6.83c-.27-2.69-2.3-5.16-4.83-6.09a7.862 7.862 0 0 0-3.82-.41c-.61.07-1.26.25-1.77.42l-1.41.46c-1.89.58-3.81 1.1-5.75 1.56c-7.76 1.81-14.16 2.76-22.18 2.96h-.24c-8.02-.19-14.03-1.15-21.79-2.96c-1.94-.46-3.86-.98-5.75-1.56l-1.41-.46c-.52-.17-1.16-.35-1.77-.42c-1.24-.17-2.58-.06-3.82.41c-2.53.93-4.31 3.39-4.67 6.07c-.58 4.38 3.39 9.09 3.41 9.12c.48.99-2.01-5.14-.82-8.54c.45-1.28 2.1-2.86 3.36-3.39c.64-.27 1.37-.39 2.14-.31c.4.03.73.11 1.19.23l1.49.41c2 .53 4.01.98 6.02 1.37c8.07 1.53 14.16 2.77 22.33 2.64" fill="#eb8f00">

</path>

<path d="M125.75 33.33s-1.03-1.78-20.16-3.56c-25.47-2.37-34.61 4.71-36.33 6.31l-.18-.01c-1.91-.12-3.72-.24-5.72-.24h-.09c-.98.01-2.93.11-4.59.21c-1.84-1.69-11.04-8.62-36.28-6.27c-19.12 1.78-20.15 3.56-20.15 3.56l-.12 7.22s2.85.81 4.7 3.1c1.84 2.26 2.7 14.92 5.69 20.87c4.63 9.24 27.65 6.9 27.65 6.9s9.39.74 13.97-7.17c4.15-7.15 5.69-17.17 5.94-19c.95-.55 2.19-.98 3.77-1c1.77.02 3.12.56 4.11 1.2c.33 2.26 1.9 11.88 5.91 18.79c4.58 7.9 13.97 7.17 13.97 7.17s23.02 2.34 27.65-6.9c2.99-5.96 3.85-18.61 5.69-20.87c1.84-2.29 4.7-3.1 4.7-3.1l-.13-7.21zm-73.4 19.92c-1.82 8.44-4.11 14.19-19.72 13.3c-10.05-.57-17.04-.55-18.65-15.21c-.99-9.11.11-12.55.86-13.65c.74-1.09 3.43-4.25 18.98-3.7c15.55.55 17.78 4.04 18.69 5.62c.04.06.07.13.11.2l.66 2.18c.37 2.17.29 5.65-.93 11.26zm61.67-1.91c-1.6 14.66-8.59 14.64-18.64 15.21c-15.61.89-17.9-4.86-19.72-13.3c-1.83-8.42-1.09-12.07-.17-13.64c.91-1.58 3.14-5.08 18.69-5.62c15.56-.55 18.24 2.61 18.98 3.7c.74 1.1 1.85 4.54.86 13.65z" fill="#35220b">

</path>

<path d="M90.02 41.94c-4.19 0-8 3.54-8 9.42s3.81 9.42 8 9.42c4.19 0 8-3.54 8-9.42s-3.81-9.42-8-9.42z" fill="#35220b">

</path>

<g>

<path d="M89.63 45.87c-1.03-.72-2.58-.49-3.58.95c-1 1.45-.67 2.97.36 3.69c1.03.72 2.58.49 3.58-.95c1.01-1.45.68-2.97-.36-3.69z" fill="#896024">

</path>

</g>

<path d="M90.02 41.94c-4.19 0-8 3.54-8 9.42s3.81 9.42 8 9.42c4.19 0 8-3.54 8-9.42s-3.81-9.42-8-9.42z" fill="#35220b">

</path>

<g>

<path d="M89.63 45.87c-1.03-.72-2.58-.49-3.58.95c-1 1.45-.67 2.97.36 3.69c1.03.72 2.58.49 3.58-.95c1.01-1.45.68-2.97-.36-3.69z" fill="#896024">

</path>

</g>

<g>

<path d="M37.67 41.94c-4.19 0-8 3.54-8 9.42s3.81 9.42 8 9.42c4.19 0 8-3.54 8-9.42s-3.81-9.42-8-9.42z" fill="#35220b">

</path>

<path d="M37.28 45.87c-1.03-.72-2.58-.49-3.58.95c-1 1.45-.67 2.97.36 3.69c1.03.72 2.58.49 3.58-.95c1-1.45.67-2.97-.36-3.69z" fill="#896024">

</path>

</g>

</svg>