<svg xmlns="http://www.w3.org/2000/svg"  viewBox="0 0 48 48" width="480px" height="480px"><path fill="#0277bd" d="M25.875,24.208c0.102,0.131,0.145,0.32,0.116,0.495l-0.276,1.208	c-0.029,0.189-0.16,0.335-0.319,0.422l-1.118,0.524c-0.16,0.087-0.363,0.087-0.523,0l-1.118-0.524	c-0.16-0.087-0.29-0.233-0.319-0.422l-0.276-1.208c-0.029-0.175,0.015-0.364,0.116-0.495l0.784-0.975	C23.043,23.087,23.218,23,23.406,23h1.22c0.189,0,0.363,0.087,0.465,0.233L25.875,24.208z"/><path fill="#0277bd" d="M25.312,15.33l0.048,0.375c0.134,1.037,0.23,2.085,0.326,3.122c0.038,0.413,0.077,0.817,0.105,1.23	c0.019,0.317,0.374,0.48,0.633,0.298c0.326-0.24,0.662-0.48,1.007-0.711c0.863-0.586,1.716-1.172,2.598-1.739l0.326-0.202	C28.984,16.454,27.239,15.599,25.312,15.33z M25.312,15.33l0.048,0.375c0.134,1.037,0.23,2.085,0.326,3.122	c0.038,0.413,0.077,0.817,0.105,1.23c0.019,0.317,0.374,0.48,0.633,0.298c0.326-0.24,0.662-0.48,1.007-0.711	c0.863-0.586,1.716-1.172,2.598-1.739l0.326-0.202C28.984,16.454,27.239,15.599,25.312,15.33z M25.312,15.33l0.048,0.375	c0.134,1.037,0.23,2.085,0.326,3.122c0.038,0.413,0.077,0.817,0.105,1.23c0.019,0.317,0.374,0.48,0.633,0.298	c0.326-0.24,0.662-0.48,1.007-0.711c0.863-0.586,1.716-1.172,2.598-1.739l0.326-0.202C28.984,16.454,27.239,15.599,25.312,15.33z M25.312,15.33l0.048,0.375c0.134,1.037,0.23,2.085,0.326,3.122c0.038,0.413,0.077,0.817,0.105,1.23	c0.019,0.317,0.374,0.48,0.633,0.298c0.326-0.24,0.662-0.48,1.007-0.711c0.863-0.586,1.716-1.172,2.598-1.739l0.326-0.202	C28.984,16.454,27.239,15.599,25.312,15.33z M25.312,15.33l0.048,0.375c0.134,1.037,0.23,2.085,0.326,3.122	c0.038,0.413,0.077,0.817,0.105,1.23c0.019,0.317,0.374,0.48,0.633,0.298c0.326-0.24,0.662-0.48,1.007-0.711	c0.863-0.586,1.716-1.172,2.598-1.739l0.326-0.202C28.984,16.454,27.239,15.599,25.312,15.33z M32.119,19.835l-0.259,0.279	c-0.719,0.769-1.457,1.508-2.196,2.248c-0.47,0.48-0.978,0.941-1.467,1.412c0.652,0.163,1.304,0.336,1.956,0.528	c1.007,0.288,2.004,0.567,3.001,0.893l0.355,0.115c0.01-0.154,0.01-0.317,0.01-0.48C33.519,22.996,33.011,21.286,32.119,19.835z M32.119,19.835l-0.259,0.279c-0.719,0.769-1.457,1.508-2.196,2.248c-0.47,0.48-0.978,0.941-1.467,1.412	c0.652,0.163,1.304,0.336,1.956,0.528c1.007,0.288,2.004,0.567,3.001,0.893l0.355,0.115c0.01-0.154,0.01-0.317,0.01-0.48	C33.519,22.996,33.011,21.286,32.119,19.835z M25.312,15.33l0.048,0.375c0.134,1.037,0.23,2.085,0.326,3.122	c0.038,0.413,0.077,0.817,0.105,1.23c0.019,0.317,0.374,0.48,0.633,0.298c0.326-0.24,0.662-0.48,1.007-0.711	c0.863-0.586,1.716-1.172,2.598-1.739l0.326-0.202C28.984,16.454,27.239,15.599,25.312,15.33z M25.312,15.33l0.048,0.375	c0.134,1.037,0.23,2.085,0.326,3.122c0.038,0.413,0.077,0.817,0.105,1.23c0.019,0.317,0.374,0.48,0.633,0.298	c0.326-0.24,0.662-0.48,1.007-0.711c0.863-0.586,1.716-1.172,2.598-1.739l0.326-0.202C28.984,16.454,27.239,15.599,25.312,15.33z M32.627,28.02c-1.045-0.067-2.081-0.163-3.126-0.259c-0.451-0.038-0.892-0.086-1.342-0.135c-0.288-0.038-0.518,0.25-0.412,0.528	c0.163,0.432,0.316,0.865,0.47,1.307c0.336,0.98,0.681,1.969,0.997,2.968l0.105,0.346c1.668-1.143,2.963-2.795,3.643-4.736	L32.627,28.02z M32.119,19.835l-0.259,0.279c-0.719,0.769-1.457,1.508-2.196,2.248c-0.47,0.48-0.978,0.941-1.467,1.412	c0.652,0.163,1.304,0.336,1.956,0.528c1.007,0.288,2.004,0.567,3.001,0.893l0.355,0.115c0.01-0.154,0.01-0.317,0.01-0.48	C33.519,22.996,33.011,21.286,32.119,19.835z M32.119,19.835l-0.259,0.279c-0.719,0.769-1.457,1.508-2.196,2.248	c-0.47,0.48-0.978,0.941-1.467,1.412c0.652,0.163,1.304,0.336,1.956,0.528c1.007,0.288,2.004,0.567,3.001,0.893l0.355,0.115	c0.01-0.154,0.01-0.317,0.01-0.48C33.519,22.996,33.011,21.286,32.119,19.835z M32.627,28.02c-1.045-0.067-2.081-0.163-3.126-0.259	c-0.451-0.038-0.892-0.086-1.342-0.135c-0.288-0.038-0.518,0.25-0.412,0.528c0.163,0.432,0.316,0.865,0.47,1.307	c0.336,0.98,0.681,1.969,0.997,2.968l0.105,0.346c1.668-1.143,2.963-2.795,3.643-4.736L32.627,28.02z M25.312,15.33l0.048,0.375	c0.134,1.037,0.23,2.085,0.326,3.122c0.038,0.413,0.077,0.817,0.105,1.23c0.019,0.317,0.374,0.48,0.633,0.298	c0.326-0.24,0.662-0.48,1.007-0.711c0.863-0.586,1.716-1.172,2.598-1.739l0.326-0.202C28.984,16.454,27.239,15.599,25.312,15.33z M25.312,15.33l0.048,0.375c0.134,1.037,0.23,2.085,0.326,3.122c0.038,0.413,0.077,0.817,0.105,1.23	c0.019,0.317,0.374,0.48,0.633,0.298c0.326-0.24,0.662-0.48,1.007-0.711c0.863-0.586,1.716-1.172,2.598-1.739l0.326-0.202	C28.984,16.454,27.239,15.599,25.312,15.33z M32.627,28.02c-1.045-0.067-2.081-0.163-3.126-0.259	c-0.451-0.038-0.892-0.086-1.342-0.135c-0.288-0.038-0.518,0.25-0.412,0.528c0.163,0.432,0.316,0.865,0.47,1.307	c0.336,0.98,0.681,1.969,0.997,2.968l0.105,0.346c1.668-1.143,2.963-2.795,3.643-4.736L32.627,28.02z M32.119,19.835l-0.259,0.279	c-0.719,0.769-1.457,1.508-2.196,2.248c-0.47,0.48-0.978,0.941-1.467,1.412c0.652,0.163,1.304,0.336,1.956,0.528	c1.007,0.288,2.004,0.567,3.001,0.893l0.355,0.115c0.01-0.154,0.01-0.317,0.01-0.48C33.519,22.996,33.011,21.286,32.119,19.835z M32.119,19.835l-0.259,0.279c-0.719,0.769-1.457,1.508-2.196,2.248c-0.47,0.48-0.978,0.941-1.467,1.412	c0.652,0.163,1.304,0.336,1.956,0.528c1.007,0.288,2.004,0.567,3.001,0.893l0.355,0.115c0.01-0.154,0.01-0.317,0.01-0.48	C33.519,22.996,33.011,21.286,32.119,19.835z M32.627,28.02c-1.045-0.067-2.081-0.163-3.126-0.259	c-0.451-0.038-0.892-0.086-1.342-0.135c-0.288-0.038-0.518,0.25-0.412,0.528c0.163,0.432,0.316,0.865,0.47,1.307	c0.336,0.98,0.681,1.969,0.997,2.968l0.105,0.346c1.668-1.143,2.963-2.795,3.643-4.736L32.627,28.02z M25.312,15.33l0.048,0.375	c0.134,1.037,0.23,2.085,0.326,3.122c0.038,0.413,0.077,0.817,0.105,1.23c0.019,0.317,0.374,0.48,0.633,0.298	c0.326-0.24,0.662-0.48,1.007-0.711c0.863-0.586,1.716-1.172,2.598-1.739l0.326-0.202C28.984,16.454,27.239,15.599,25.312,15.33z M26.606,33.62c-0.556-0.884-1.074-1.796-1.592-2.699c-0.23-0.394-0.451-0.788-0.662-1.191c-0.153-0.279-0.547-0.279-0.7,0	c-0.221,0.413-0.451,0.817-0.69,1.21c-0.527,0.903-1.055,1.806-1.611,2.69l-0.24,0.384c0.892,0.279,1.841,0.423,2.819,0.423	c1.007,0,1.985-0.154,2.896-0.452L26.606,33.62z M25.312,15.33l0.048,0.375c0.134,1.037,0.23,2.085,0.326,3.122	c0.038,0.413,0.077,0.817,0.105,1.23c0.019,0.317,0.374,0.48,0.633,0.298c0.326-0.24,0.662-0.48,1.007-0.711	c0.863-0.586,1.716-1.172,2.598-1.739l0.326-0.202C28.984,16.454,27.239,15.599,25.312,15.33z M32.627,28.02	c-1.045-0.067-2.081-0.163-3.126-0.259c-0.451-0.038-0.892-0.086-1.342-0.135c-0.288-0.038-0.518,0.25-0.412,0.528	c0.163,0.432,0.316,0.865,0.47,1.307c0.336,0.98,0.681,1.969,0.997,2.968l0.105,0.346c1.668-1.143,2.963-2.795,3.643-4.736	L32.627,28.02z M32.119,19.835l-0.259,0.279c-0.719,0.769-1.457,1.508-2.196,2.248c-0.47,0.48-0.978,0.941-1.467,1.412	c0.652,0.163,1.304,0.336,1.956,0.528c1.007,0.288,2.004,0.567,3.001,0.893l0.355,0.115c0.01-0.154,0.01-0.317,0.01-0.48	C33.519,22.996,33.011,21.286,32.119,19.835z M32.119,19.835l-0.259,0.279c-0.719,0.769-1.457,1.508-2.196,2.248	c-0.47,0.48-0.978,0.941-1.467,1.412c0.652,0.163,1.304,0.336,1.956,0.528c1.007,0.288,2.004,0.567,3.001,0.893l0.355,0.115	c0.01-0.154,0.01-0.317,0.01-0.48C33.519,22.996,33.011,21.286,32.119,19.835z M32.627,28.02c-1.045-0.067-2.081-0.163-3.126-0.259	c-0.451-0.038-0.892-0.086-1.342-0.135c-0.288-0.038-0.518,0.25-0.412,0.528c0.163,0.432,0.316,0.865,0.47,1.307	c0.336,0.98,0.681,1.969,0.997,2.968l0.105,0.346c1.668-1.143,2.963-2.795,3.643-4.736L32.627,28.02z M25.312,15.33l0.048,0.375	c0.134,1.037,0.23,2.085,0.326,3.122c0.038,0.413,0.077,0.817,0.105,1.23c0.019,0.317,0.374,0.48,0.633,0.298	c0.326-0.24,0.662-0.48,1.007-0.711c0.863-0.586,1.716-1.172,2.598-1.739l0.326-0.202C28.984,16.454,27.239,15.599,25.312,15.33z M26.606,33.62c-0.556-0.884-1.074-1.796-1.592-2.699c-0.23-0.394-0.451-0.788-0.662-1.191c-0.153-0.279-0.547-0.279-0.7,0	c-0.221,0.413-0.451,0.817-0.69,1.21c-0.527,0.903-1.055,1.806-1.611,2.69l-0.24,0.384c0.892,0.279,1.841,0.423,2.819,0.423	c1.007,0,1.985-0.154,2.896-0.452L26.606,33.62z M19.875,27.492c-0.451,0.058-0.892,0.125-1.342,0.173	c-1.045,0.125-2.071,0.25-3.116,0.346l-0.518,0.048c0.7,1.96,2.023,3.631,3.72,4.765l0.134-0.404	c0.326-0.999,0.671-1.979,1.026-2.968c0.163-0.48,0.336-0.951,0.518-1.431C20.412,27.741,20.172,27.444,19.875,27.492z M26.606,33.62c-0.556-0.884-1.074-1.796-1.592-2.699c-0.23-0.394-0.451-0.788-0.662-1.191c-0.153-0.279-0.547-0.279-0.7,0	c-0.221,0.413-0.451,0.817-0.69,1.21c-0.527,0.903-1.055,1.806-1.611,2.69l-0.24,0.384c0.892,0.279,1.841,0.423,2.819,0.423	c1.007,0,1.985-0.154,2.896-0.452L26.606,33.62z M25.312,15.33l0.048,0.375c0.134,1.037,0.23,2.085,0.326,3.122	c0.038,0.413,0.077,0.817,0.105,1.23c0.019,0.317,0.374,0.48,0.633,0.298c0.326-0.24,0.662-0.48,1.007-0.711	c0.863-0.586,1.716-1.172,2.598-1.739l0.326-0.202C28.984,16.454,27.239,15.599,25.312,15.33z M32.627,28.02	c-1.045-0.067-2.081-0.163-3.126-0.259c-0.451-0.038-0.892-0.086-1.342-0.135c-0.288-0.038-0.518,0.25-0.412,0.528	c0.163,0.432,0.316,0.865,0.47,1.307c0.336,0.98,0.681,1.969,0.997,2.968l0.105,0.346c1.668-1.143,2.963-2.795,3.643-4.736	L32.627,28.02z M32.119,19.835l-0.259,0.279c-0.719,0.769-1.457,1.508-2.196,2.248c-0.47,0.48-0.978,0.941-1.467,1.412	c0.652,0.163,1.304,0.336,1.956,0.528c1.007,0.288,2.004,0.567,3.001,0.893l0.355,0.115c0.01-0.154,0.01-0.317,0.01-0.48	C33.519,22.996,33.011,21.286,32.119,19.835z M32.119,19.835l-0.259,0.279c-0.719,0.769-1.457,1.508-2.196,2.248	c-0.47,0.48-0.978,0.941-1.467,1.412c0.652,0.163,1.304,0.336,1.956,0.528c1.007,0.288,2.004,0.567,3.001,0.893l0.355,0.115	c0.01-0.154,0.01-0.317,0.01-0.48C33.519,22.996,33.011,21.286,32.119,19.835z M32.627,28.02c-1.045-0.067-2.081-0.163-3.126-0.259	c-0.451-0.038-0.892-0.086-1.342-0.135c-0.288-0.038-0.518,0.25-0.412,0.528c0.163,0.432,0.316,0.865,0.47,1.307	c0.336,0.98,0.681,1.969,0.997,2.968l0.105,0.346c1.668-1.143,2.963-2.795,3.643-4.736L32.627,28.02z M25.312,15.33l0.048,0.375	c0.134,1.037,0.23,2.085,0.326,3.122c0.038,0.413,0.077,0.817,0.105,1.23c0.019,0.317,0.374,0.48,0.633,0.298	c0.326-0.24,0.662-0.48,1.007-0.711c0.863-0.586,1.716-1.172,2.598-1.739l0.326-0.202C28.984,16.454,27.239,15.599,25.312,15.33z M26.606,33.62c-0.556-0.884-1.074-1.796-1.592-2.699c-0.23-0.394-0.451-0.788-0.662-1.191c-0.153-0.279-0.547-0.279-0.7,0	c-0.221,0.413-0.451,0.817-0.69,1.21c-0.527,0.903-1.055,1.806-1.611,2.69l-0.24,0.384c0.892,0.279,1.841,0.423,2.819,0.423	c1.007,0,1.985-0.154,2.896-0.452L26.606,33.62z M19.875,27.492c-0.451,0.058-0.892,0.125-1.342,0.173	c-1.045,0.125-2.071,0.25-3.116,0.346l-0.518,0.048c0.7,1.96,2.023,3.631,3.72,4.765l0.134-0.404	c0.326-0.999,0.671-1.979,1.026-2.968c0.163-0.48,0.336-0.951,0.518-1.431C20.412,27.741,20.172,27.444,19.875,27.492z M19.875,27.492c-0.451,0.058-0.892,0.125-1.342,0.173c-1.045,0.125-2.071,0.25-3.116,0.346l-0.518,0.048	c0.7,1.96,2.023,3.631,3.72,4.765l0.134-0.404c0.326-0.999,0.671-1.979,1.026-2.968c0.163-0.48,0.336-0.951,0.518-1.431	C20.412,27.741,20.172,27.444,19.875,27.492z M26.606,33.62c-0.556-0.884-1.074-1.796-1.592-2.699	c-0.23-0.394-0.451-0.788-0.662-1.191c-0.153-0.279-0.547-0.279-0.7,0c-0.221,0.413-0.451,0.817-0.69,1.21	c-0.527,0.903-1.055,1.806-1.611,2.69l-0.24,0.384c0.892,0.279,1.841,0.423,2.819,0.423c1.007,0,1.985-0.154,2.896-0.452	L26.606,33.62z M25.312,15.33l0.048,0.375c0.134,1.037,0.23,2.085,0.326,3.122c0.038,0.413,0.077,0.817,0.105,1.23	c0.019,0.317,0.374,0.48,0.633,0.298c0.326-0.24,0.662-0.48,1.007-0.711c0.863-0.586,1.716-1.172,2.598-1.739l0.326-0.202	C28.984,16.454,27.239,15.599,25.312,15.33z M32.627,28.02c-1.045-0.067-2.081-0.163-3.126-0.259	c-0.451-0.038-0.892-0.086-1.342-0.135c-0.288-0.038-0.518,0.25-0.412,0.528c0.163,0.432,0.316,0.865,0.47,1.307	c0.336,0.98,0.681,1.969,0.997,2.968l0.105,0.346c1.668-1.143,2.963-2.795,3.643-4.736L32.627,28.02z M32.119,19.835l-0.259,0.279	c-0.719,0.769-1.457,1.508-2.196,2.248c-0.47,0.48-0.978,0.941-1.467,1.412c0.652,0.163,1.304,0.336,1.956,0.528	c1.007,0.288,2.004,0.567,3.001,0.893l0.355,0.115c0.01-0.154,0.01-0.317,0.01-0.48C33.519,22.996,33.011,21.286,32.119,19.835z M32.119,19.835l-0.259,0.279c-0.719,0.769-1.457,1.508-2.196,2.248c-0.47,0.48-0.978,0.941-1.467,1.412	c0.652,0.163,1.304,0.336,1.956,0.528c1.007,0.288,2.004,0.567,3.001,0.893l0.355,0.115c0.01-0.154,0.01-0.317,0.01-0.48	C33.519,22.996,33.011,21.286,32.119,19.835z M32.627,28.02c-1.045-0.067-2.081-0.163-3.126-0.259	c-0.451-0.038-0.892-0.086-1.342-0.135c-0.288-0.038-0.518,0.25-0.412,0.528c0.163,0.432,0.316,0.865,0.47,1.307	c0.336,0.98,0.681,1.969,0.997,2.968l0.105,0.346c1.668-1.143,2.963-2.795,3.643-4.736L32.627,28.02z M25.312,15.33l0.048,0.375	c0.134,1.037,0.23,2.085,0.326,3.122c0.038,0.413,0.077,0.817,0.105,1.23c0.019,0.317,0.374,0.48,0.633,0.298	c0.326-0.24,0.662-0.48,1.007-0.711c0.863-0.586,1.716-1.172,2.598-1.739l0.326-0.202C28.984,16.454,27.239,15.599,25.312,15.33z M26.606,33.62c-0.556-0.884-1.074-1.796-1.592-2.699c-0.23-0.394-0.451-0.788-0.662-1.191c-0.153-0.279-0.547-0.279-0.7,0	c-0.221,0.413-0.451,0.817-0.69,1.21c-0.527,0.903-1.055,1.806-1.611,2.69l-0.24,0.384c0.892,0.279,1.841,0.423,2.819,0.423	c1.007,0,1.985-0.154,2.896-0.452L26.606,33.62z M19.875,27.492c-0.451,0.058-0.892,0.125-1.342,0.173	c-1.045,0.125-2.071,0.25-3.116,0.346l-0.518,0.048c0.7,1.96,2.023,3.631,3.72,4.765l0.134-0.404	c0.326-0.999,0.671-1.979,1.026-2.968c0.163-0.48,0.336-0.951,0.518-1.431C20.412,27.741,20.172,27.444,19.875,27.492z M19.338,23.111c-0.326-0.298-0.642-0.596-0.959-0.913c-0.748-0.74-1.486-1.47-2.215-2.229l-0.307-0.317	c-0.959,1.489-1.515,3.266-1.515,5.178c0,0.183,0.01,0.355,0.01,0.528l0.451-0.154c0.988-0.355,1.985-0.663,2.972-0.989	c0.47-0.154,0.94-0.288,1.409-0.432C19.482,23.697,19.568,23.322,19.338,23.111z M19.875,27.492	c-0.451,0.058-0.892,0.125-1.342,0.173c-1.045,0.125-2.071,0.25-3.116,0.346l-0.518,0.048c0.7,1.96,2.023,3.631,3.72,4.765	l0.134-0.404c0.326-0.999,0.671-1.979,1.026-2.968c0.163-0.48,0.336-0.951,0.518-1.431C20.412,27.741,20.172,27.444,19.875,27.492z M26.606,33.62c-0.556-0.884-1.074-1.796-1.592-2.699c-0.23-0.394-0.451-0.788-0.662-1.191c-0.153-0.279-0.547-0.279-0.7,0	c-0.221,0.413-0.451,0.817-0.69,1.21c-0.527,0.903-1.055,1.806-1.611,2.69l-0.24,0.384c0.892,0.279,1.841,0.423,2.819,0.423	c1.007,0,1.985-0.154,2.896-0.452L26.606,33.62z M25.312,15.33l0.048,0.375c0.134,1.037,0.23,2.085,0.326,3.122	c0.038,0.413,0.077,0.817,0.105,1.23c0.019,0.317,0.374,0.48,0.633,0.298c0.326-0.24,0.662-0.48,1.007-0.711	c0.863-0.586,1.716-1.172,2.598-1.739l0.326-0.202C28.984,16.454,27.239,15.599,25.312,15.33z M32.627,28.02	c-1.045-0.067-2.081-0.163-3.126-0.259c-0.451-0.038-0.892-0.086-1.342-0.135c-0.288-0.038-0.518,0.25-0.412,0.528	c0.163,0.432,0.316,0.865,0.47,1.307c0.336,0.98,0.681,1.969,0.997,2.968l0.105,0.346c1.668-1.143,2.963-2.795,3.643-4.736	L32.627,28.02z M32.119,19.835l-0.259,0.279c-0.719,0.769-1.457,1.508-2.196,2.248c-0.47,0.48-0.978,0.941-1.467,1.412	c0.652,0.163,1.304,0.336,1.956,0.528c1.007,0.288,2.004,0.567,3.001,0.893l0.355,0.115c0.01-0.154,0.01-0.317,0.01-0.48	C33.519,22.996,33.011,21.286,32.119,19.835z M32.119,19.835l-0.259,0.279c-0.719,0.769-1.457,1.508-2.196,2.248	c-0.47,0.48-0.978,0.941-1.467,1.412c0.652,0.163,1.304,0.336,1.956,0.528c1.007,0.288,2.004,0.567,3.001,0.893l0.355,0.115	c0.01-0.154,0.01-0.317,0.01-0.48C33.519,22.996,33.011,21.286,32.119,19.835z M29.501,27.761c-0.451-0.038-0.892-0.086-1.342-0.135	c-0.288-0.038-0.518,0.25-0.412,0.528c0.163,0.432,0.316,0.865,0.47,1.307c0.336,0.98,0.681,1.969,0.997,2.968l0.105,0.346	c1.668-1.143,2.963-2.795,3.643-4.736l-0.336-0.019C31.582,27.953,30.547,27.857,29.501,27.761z M30.355,17.703	c-1.371-1.249-3.116-2.104-5.043-2.373l0.048,0.375c0.134,1.037,0.23,2.085,0.326,3.122c0.038,0.413,0.077,0.817,0.105,1.23	c0.019,0.317,0.374,0.48,0.633,0.298c0.326-0.24,0.662-0.48,1.007-0.711c0.863-0.586,1.716-1.172,2.598-1.739L30.355,17.703z M25.014,30.921c-0.23-0.394-0.451-0.788-0.662-1.191c-0.153-0.279-0.547-0.279-0.7,0c-0.221,0.413-0.451,0.817-0.69,1.21	c-0.527,0.903-1.055,1.806-1.611,2.69l-0.24,0.384c0.892,0.279,1.841,0.423,2.819,0.423c1.007,0,1.985-0.154,2.896-0.452	l-0.221-0.365C26.05,32.737,25.532,31.824,25.014,30.921z M19.875,27.492c-0.451,0.058-0.892,0.125-1.342,0.173	c-1.045,0.125-2.071,0.25-3.116,0.346l-0.518,0.048c0.7,1.96,2.023,3.631,3.72,4.765l0.134-0.404	c0.326-0.999,0.671-1.979,1.026-2.968c0.163-0.48,0.336-0.951,0.518-1.431C20.412,27.741,20.172,27.444,19.875,27.492z M19.185,23.783c0.297-0.086,0.384-0.461,0.153-0.672c-0.326-0.298-0.642-0.596-0.959-0.913c-0.748-0.74-1.486-1.47-2.215-2.229	l-0.307-0.317c-0.959,1.489-1.515,3.266-1.515,5.178c0,0.183,0.01,0.355,0.01,0.528l0.451-0.154	c0.988-0.355,1.985-0.663,2.972-0.989C18.245,24.062,18.715,23.928,19.185,23.783z M44.766,28.174l-3.663-16.12	c-0.163-0.72-0.642-1.316-1.304-1.643L24.976,3.245c-0.662-0.327-1.429-0.327-2.09,0L8.063,10.411	c-0.662,0.327-1.141,0.922-1.304,1.643l-3.663,16.12c-0.163,0.72,0.01,1.47,0.46,2.037l10.259,12.93	c0.46,0.576,1.16,0.913,1.889,0.913h16.453c0.729,0,1.429-0.336,1.889-0.913l10.259-12.93	C44.756,29.643,44.929,28.894,44.766,28.174z M39.646,28.846c-0.288,0.067-0.575,0-0.805-0.144c-0.47-0.317-0.968-0.49-1.467-0.634	c-0.249-0.067-0.508-0.125-0.757-0.163c-0.249-0.077-0.537,0-0.825,0.134c-0.288,0.163-0.547,0.135-0.815,0.115h-0.029	c-0.825,2.738-2.637,5.053-5.034,6.523v0.01c0.077,0.25,0.163,0.49,0.086,0.817c-0.067,0.317-0.077,0.605,0.058,0.836	c0.105,0.231,0.221,0.471,0.345,0.692c0.259,0.451,0.547,0.903,0.968,1.278c0.422,0.394,0.451,1.047,0.067,1.479	c-0.393,0.423-1.045,0.451-1.477,0.067c-0.221-0.202-0.336-0.471-0.336-0.749c-0.019-0.567-0.163-1.066-0.336-1.566	c-0.086-0.24-0.182-0.48-0.297-0.72c-0.086-0.25-0.316-0.423-0.595-0.586c-0.268-0.144-0.403-0.346-0.537-0.567	c-1.227,0.452-2.55,0.692-3.931,0.692c-1.361,0-2.665-0.24-3.874-0.672c-0.115,0.211-0.249,0.403-0.518,0.548	c-0.278,0.154-0.508,0.336-0.594,0.586c-0.115,0.231-0.221,0.471-0.307,0.711c-0.173,0.5-0.326,0.999-0.336,1.566	c-0.019,0.576-0.508,1.028-1.083,1.009c-0.575-0.019-1.026-0.499-1.007-1.076c0.01-0.298,0.144-0.557,0.345-0.74	c0.422-0.384,0.71-0.826,0.978-1.268c0.125-0.231,0.24-0.461,0.345-0.701c0.134-0.221,0.125-0.519,0.067-0.836	c-0.067-0.298,0-0.538,0.077-0.759c-2.407-1.451-4.248-3.756-5.091-6.494c-0.221,0.019-0.431,0.019-0.681-0.106	c-0.297-0.125-0.575-0.202-0.825-0.115c-0.259,0.048-0.508,0.115-0.757,0.192c-0.499,0.163-0.988,0.346-1.448,0.672	c-0.47,0.336-1.122,0.221-1.457-0.25c-0.326-0.471-0.221-1.124,0.249-1.451c0.24-0.173,0.537-0.231,0.805-0.183	c0.547,0.115,1.074,0.077,1.592,0.01c0.259-0.029,0.518-0.077,0.767-0.144c0.259-0.019,0.489-0.211,0.7-0.451	c0.182-0.211,0.393-0.298,0.604-0.375c-0.038-0.394-0.058-0.797-0.058-1.201c0-2.459,0.767-4.736,2.081-6.609	c-0.173-0.173-0.336-0.346-0.403-0.653c-0.086-0.307-0.201-0.576-0.422-0.72c-0.201-0.173-0.403-0.327-0.614-0.471	c-0.441-0.288-0.892-0.557-1.429-0.72c-0.556-0.154-0.882-0.74-0.719-1.287c0.163-0.557,0.738-0.874,1.294-0.72	c0.278,0.086,0.508,0.279,0.633,0.519c0.259,0.5,0.614,0.893,0.988,1.258c0.182,0.183,0.384,0.355,0.585,0.509	c0.182,0.192,0.47,0.25,0.786,0.269c0.336,0.01,0.546,0.154,0.767,0.298l0.01,0.01c1.803-1.748,4.18-2.901,6.817-3.151	c0.029-0.259,0.048-0.519,0.249-0.778c0.192-0.259,0.326-0.519,0.297-0.778c0.01-0.259,0-0.519-0.019-0.788	c-0.058-0.519-0.134-1.038-0.355-1.556c-0.23-0.528,0.019-1.143,0.547-1.374c0.527-0.221,1.141,0.019,1.371,0.548	c0.115,0.279,0.105,0.576,0,0.826c-0.221,0.519-0.297,1.037-0.355,1.556c-0.019,0.269-0.029,0.528-0.019,0.788	c-0.029,0.259,0.105,0.519,0.297,0.778c0.201,0.259,0.221,0.519,0.249,0.778c2.704,0.259,5.139,1.46,6.961,3.285	c0.221-0.144,0.431-0.298,0.767-0.307c0.316-0.019,0.604-0.077,0.786-0.269c0.201-0.163,0.393-0.336,0.585-0.519	c0.364-0.365,0.719-0.759,0.978-1.258c0.259-0.519,0.892-0.72,1.4-0.451c0.518,0.259,0.719,0.893,0.451,1.403	c-0.134,0.269-0.364,0.452-0.633,0.528c-0.537,0.154-0.988,0.432-1.419,0.72c-0.211,0.154-0.422,0.307-0.614,0.48	c-0.221,0.144-0.336,0.413-0.422,0.72c-0.067,0.327-0.249,0.509-0.431,0.701c1.246,1.835,1.966,4.054,1.966,6.436	c0,0.365-0.019,0.73-0.048,1.086h0.01c0.249,0.077,0.499,0.144,0.719,0.403c0.221,0.231,0.451,0.403,0.71,0.423	c0.259,0.058,0.508,0.096,0.767,0.125c0.527,0.048,1.045,0.067,1.601-0.058c0.566-0.125,1.122,0.231,1.246,0.797	C40.566,28.164,40.211,28.721,39.646,28.846z M31.86,20.114c-0.719,0.769-1.457,1.508-2.196,2.248	c-0.47,0.48-0.978,0.941-1.467,1.412c0.652,0.163,1.304,0.336,1.956,0.528c1.007,0.288,2.004,0.567,3.001,0.893l0.355,0.115	c0.01-0.154,0.01-0.317,0.01-0.48c0-1.835-0.508-3.545-1.4-4.995L31.86,20.114z M29.501,27.761	c-0.451-0.038-0.892-0.086-1.342-0.135c-0.288-0.038-0.518,0.25-0.412,0.528c0.163,0.432,0.316,0.865,0.47,1.307	c0.336,0.98,0.681,1.969,0.997,2.968l0.105,0.346c1.668-1.143,2.963-2.795,3.643-4.736l-0.336-0.019	C31.582,27.953,30.547,27.857,29.501,27.761z M30.355,17.703c-1.371-1.249-3.116-2.104-5.043-2.373l0.048,0.375	c0.134,1.037,0.23,2.085,0.326,3.122c0.038,0.413,0.077,0.817,0.105,1.23c0.019,0.317,0.374,0.48,0.633,0.298	c0.326-0.24,0.662-0.48,1.007-0.711c0.863-0.586,1.716-1.172,2.598-1.739L30.355,17.703z M25.014,30.921	c-0.23-0.394-0.451-0.788-0.662-1.191c-0.153-0.279-0.547-0.279-0.7,0c-0.221,0.413-0.451,0.817-0.69,1.21	c-0.527,0.903-1.055,1.806-1.611,2.69l-0.24,0.384c0.892,0.279,1.841,0.423,2.819,0.423c1.007,0,1.985-0.154,2.896-0.452	l-0.221-0.365C26.05,32.737,25.532,31.824,25.014,30.921z M22.176,18.827c0.096-1.038,0.192-2.085,0.326-3.122l0.048-0.375	c-1.85,0.259-3.528,1.057-4.871,2.229l0.297,0.183c0.892,0.557,1.755,1.143,2.618,1.729c0.499,0.317,0.968,0.672,1.438,1.009	C22.071,19.931,22.119,19.374,22.176,18.827z M19.875,27.492c-0.451,0.058-0.892,0.125-1.342,0.173	c-1.045,0.125-2.071,0.25-3.116,0.346l-0.518,0.048c0.7,1.96,2.023,3.631,3.72,4.765l0.134-0.404	c0.326-0.999,0.671-1.979,1.026-2.968c0.163-0.48,0.336-0.951,0.518-1.431C20.412,27.741,20.172,27.444,19.875,27.492z M19.185,23.783c0.297-0.086,0.384-0.461,0.153-0.672c-0.326-0.298-0.642-0.596-0.959-0.913c-0.748-0.74-1.486-1.47-2.215-2.229	l-0.307-0.317c-0.959,1.489-1.515,3.266-1.515,5.178c0,0.183,0.01,0.355,0.01,0.528l0.451-0.154	c0.988-0.355,1.985-0.663,2.972-0.989C18.245,24.062,18.715,23.928,19.185,23.783z M19.338,23.111	c-0.326-0.298-0.642-0.596-0.959-0.913c-0.748-0.74-1.486-1.47-2.215-2.229l-0.307-0.317c-0.959,1.489-1.515,3.266-1.515,5.178	c0,0.183,0.01,0.355,0.01,0.528l0.451-0.154c0.988-0.355,1.985-0.663,2.972-0.989c0.47-0.154,0.94-0.288,1.409-0.432	C19.482,23.697,19.568,23.322,19.338,23.111z M19.875,27.492c-0.451,0.058-0.892,0.125-1.342,0.173	c-1.045,0.125-2.071,0.25-3.116,0.346l-0.518,0.048c0.7,1.96,2.023,3.631,3.72,4.765l0.134-0.404	c0.326-0.999,0.671-1.979,1.026-2.968c0.163-0.48,0.336-0.951,0.518-1.431C20.412,27.741,20.172,27.444,19.875,27.492z M26.606,33.62c-0.556-0.884-1.074-1.796-1.592-2.699c-0.23-0.394-0.451-0.788-0.662-1.191c-0.153-0.279-0.547-0.279-0.7,0	c-0.221,0.413-0.451,0.817-0.69,1.21c-0.527,0.903-1.055,1.806-1.611,2.69l-0.24,0.384c0.892,0.279,1.841,0.423,2.819,0.423	c1.007,0,1.985-0.154,2.896-0.452L26.606,33.62z M25.312,15.33l0.048,0.375c0.134,1.037,0.23,2.085,0.326,3.122	c0.038,0.413,0.077,0.817,0.105,1.23c0.019,0.317,0.374,0.48,0.633,0.298c0.326-0.24,0.662-0.48,1.007-0.711	c0.863-0.586,1.716-1.172,2.598-1.739l0.326-0.202C28.984,16.454,27.239,15.599,25.312,15.33z M32.627,28.02	c-1.045-0.067-2.081-0.163-3.126-0.259c-0.451-0.038-0.892-0.086-1.342-0.135c-0.288-0.038-0.518,0.25-0.412,0.528	c0.163,0.432,0.316,0.865,0.47,1.307c0.336,0.98,0.681,1.969,0.997,2.968l0.105,0.346c1.668-1.143,2.963-2.795,3.643-4.736	L32.627,28.02z M32.119,19.835l-0.259,0.279c-0.719,0.769-1.457,1.508-2.196,2.248c-0.47,0.48-0.978,0.941-1.467,1.412	c0.652,0.163,1.304,0.336,1.956,0.528c1.007,0.288,2.004,0.567,3.001,0.893l0.355,0.115c0.01-0.154,0.01-0.317,0.01-0.48	C33.519,22.996,33.011,21.286,32.119,19.835z M32.119,19.835l-0.259,0.279c-0.719,0.769-1.457,1.508-2.196,2.248	c-0.47,0.48-0.978,0.941-1.467,1.412c0.652,0.163,1.304,0.336,1.956,0.528c1.007,0.288,2.004,0.567,3.001,0.893l0.355,0.115	c0.01-0.154,0.01-0.317,0.01-0.48C33.519,22.996,33.011,21.286,32.119,19.835z M32.627,28.02c-1.045-0.067-2.081-0.163-3.126-0.259	c-0.451-0.038-0.892-0.086-1.342-0.135c-0.288-0.038-0.518,0.25-0.412,0.528c0.163,0.432,0.316,0.865,0.47,1.307	c0.336,0.98,0.681,1.969,0.997,2.968l0.105,0.346c1.668-1.143,2.963-2.795,3.643-4.736L32.627,28.02z M25.312,15.33l0.048,0.375	c0.134,1.037,0.23,2.085,0.326,3.122c0.038,0.413,0.077,0.817,0.105,1.23c0.019,0.317,0.374,0.48,0.633,0.298	c0.326-0.24,0.662-0.48,1.007-0.711c0.863-0.586,1.716-1.172,2.598-1.739l0.326-0.202C28.984,16.454,27.239,15.599,25.312,15.33z M26.606,33.62c-0.556-0.884-1.074-1.796-1.592-2.699c-0.23-0.394-0.451-0.788-0.662-1.191c-0.153-0.279-0.547-0.279-0.7,0	c-0.221,0.413-0.451,0.817-0.69,1.21c-0.527,0.903-1.055,1.806-1.611,2.69l-0.24,0.384c0.892,0.279,1.841,0.423,2.819,0.423	c1.007,0,1.985-0.154,2.896-0.452L26.606,33.62z M19.875,27.492c-0.451,0.058-0.892,0.125-1.342,0.173	c-1.045,0.125-2.071,0.25-3.116,0.346l-0.518,0.048c0.7,1.96,2.023,3.631,3.72,4.765l0.134-0.404	c0.326-0.999,0.671-1.979,1.026-2.968c0.163-0.48,0.336-0.951,0.518-1.431C20.412,27.741,20.172,27.444,19.875,27.492z M19.338,23.111c-0.326-0.298-0.642-0.596-0.959-0.913c-0.748-0.74-1.486-1.47-2.215-2.229l-0.307-0.317	c-0.959,1.489-1.515,3.266-1.515,5.178c0,0.183,0.01,0.355,0.01,0.528l0.451-0.154c0.988-0.355,1.985-0.663,2.972-0.989	c0.47-0.154,0.94-0.288,1.409-0.432C19.482,23.697,19.568,23.322,19.338,23.111z M19.875,27.492	c-0.451,0.058-0.892,0.125-1.342,0.173c-1.045,0.125-2.071,0.25-3.116,0.346l-0.518,0.048c0.7,1.96,2.023,3.631,3.72,4.765	l0.134-0.404c0.326-0.999,0.671-1.979,1.026-2.968c0.163-0.48,0.336-0.951,0.518-1.431C20.412,27.741,20.172,27.444,19.875,27.492z M26.606,33.62c-0.556-0.884-1.074-1.796-1.592-2.699c-0.23-0.394-0.451-0.788-0.662-1.191c-0.153-0.279-0.547-0.279-0.7,0	c-0.221,0.413-0.451,0.817-0.69,1.21c-0.527,0.903-1.055,1.806-1.611,2.69l-0.24,0.384c0.892,0.279,1.841,0.423,2.819,0.423	c1.007,0,1.985-0.154,2.896-0.452L26.606,33.62z M25.312,15.33l0.048,0.375c0.134,1.037,0.23,2.085,0.326,3.122	c0.038,0.413,0.077,0.817,0.105,1.23c0.019,0.317,0.374,0.48,0.633,0.298c0.326-0.24,0.662-0.48,1.007-0.711	c0.863-0.586,1.716-1.172,2.598-1.739l0.326-0.202C28.984,16.454,27.239,15.599,25.312,15.33z M32.627,28.02	c-1.045-0.067-2.081-0.163-3.126-0.259c-0.451-0.038-0.892-0.086-1.342-0.135c-0.288-0.038-0.518,0.25-0.412,0.528	c0.163,0.432,0.316,0.865,0.47,1.307c0.336,0.98,0.681,1.969,0.997,2.968l0.105,0.346c1.668-1.143,2.963-2.795,3.643-4.736	L32.627,28.02z M32.119,19.835l-0.259,0.279c-0.719,0.769-1.457,1.508-2.196,2.248c-0.47,0.48-0.978,0.941-1.467,1.412	c0.652,0.163,1.304,0.336,1.956,0.528c1.007,0.288,2.004,0.567,3.001,0.893l0.355,0.115c0.01-0.154,0.01-0.317,0.01-0.48	C33.519,22.996,33.011,21.286,32.119,19.835z M32.119,19.835l-0.259,0.279c-0.719,0.769-1.457,1.508-2.196,2.248	c-0.47,0.48-0.978,0.941-1.467,1.412c0.652,0.163,1.304,0.336,1.956,0.528c1.007,0.288,2.004,0.567,3.001,0.893l0.355,0.115	c0.01-0.154,0.01-0.317,0.01-0.48C33.519,22.996,33.011,21.286,32.119,19.835z M32.627,28.02c-1.045-0.067-2.081-0.163-3.126-0.259	c-0.451-0.038-0.892-0.086-1.342-0.135c-0.288-0.038-0.518,0.25-0.412,0.528c0.163,0.432,0.316,0.865,0.47,1.307	c0.336,0.98,0.681,1.969,0.997,2.968l0.105,0.346c1.668-1.143,2.963-2.795,3.643-4.736L32.627,28.02z M25.312,15.33l0.048,0.375	c0.134,1.037,0.23,2.085,0.326,3.122c0.038,0.413,0.077,0.817,0.105,1.23c0.019,0.317,0.374,0.48,0.633,0.298	c0.326-0.24,0.662-0.48,1.007-0.711c0.863-0.586,1.716-1.172,2.598-1.739l0.326-0.202C28.984,16.454,27.239,15.599,25.312,15.33z M26.606,33.62c-0.556-0.884-1.074-1.796-1.592-2.699c-0.23-0.394-0.451-0.788-0.662-1.191c-0.153-0.279-0.547-0.279-0.7,0	c-0.221,0.413-0.451,0.817-0.69,1.21c-0.527,0.903-1.055,1.806-1.611,2.69l-0.24,0.384c0.892,0.279,1.841,0.423,2.819,0.423	c1.007,0,1.985-0.154,2.896-0.452L26.606,33.62z M19.875,27.492c-0.451,0.058-0.892,0.125-1.342,0.173	c-1.045,0.125-2.071,0.25-3.116,0.346l-0.518,0.048c0.7,1.96,2.023,3.631,3.72,4.765l0.134-0.404	c0.326-0.999,0.671-1.979,1.026-2.968c0.163-0.48,0.336-0.951,0.518-1.431C20.412,27.741,20.172,27.444,19.875,27.492z M26.606,33.62c-0.556-0.884-1.074-1.796-1.592-2.699c-0.23-0.394-0.451-0.788-0.662-1.191c-0.153-0.279-0.547-0.279-0.7,0	c-0.221,0.413-0.451,0.817-0.69,1.21c-0.527,0.903-1.055,1.806-1.611,2.69l-0.24,0.384c0.892,0.279,1.841,0.423,2.819,0.423	c1.007,0,1.985-0.154,2.896-0.452L26.606,33.62z M25.312,15.33l0.048,0.375c0.134,1.037,0.23,2.085,0.326,3.122	c0.038,0.413,0.077,0.817,0.105,1.23c0.019,0.317,0.374,0.48,0.633,0.298c0.326-0.24,0.662-0.48,1.007-0.711	c0.863-0.586,1.716-1.172,2.598-1.739l0.326-0.202C28.984,16.454,27.239,15.599,25.312,15.33z M32.627,28.02	c-1.045-0.067-2.081-0.163-3.126-0.259c-0.451-0.038-0.892-0.086-1.342-0.135c-0.288-0.038-0.518,0.25-0.412,0.528	c0.163,0.432,0.316,0.865,0.47,1.307c0.336,0.98,0.681,1.969,0.997,2.968l0.105,0.346c1.668-1.143,2.963-2.795,3.643-4.736	L32.627,28.02z M32.119,19.835l-0.259,0.279c-0.719,0.769-1.457,1.508-2.196,2.248c-0.47,0.48-0.978,0.941-1.467,1.412	c0.652,0.163,1.304,0.336,1.956,0.528c1.007,0.288,2.004,0.567,3.001,0.893l0.355,0.115c0.01-0.154,0.01-0.317,0.01-0.48	C33.519,22.996,33.011,21.286,32.119,19.835z M32.119,19.835l-0.259,0.279c-0.719,0.769-1.457,1.508-2.196,2.248	c-0.47,0.48-0.978,0.941-1.467,1.412c0.652,0.163,1.304,0.336,1.956,0.528c1.007,0.288,2.004,0.567,3.001,0.893l0.355,0.115	c0.01-0.154,0.01-0.317,0.01-0.48C33.519,22.996,33.011,21.286,32.119,19.835z M32.627,28.02c-1.045-0.067-2.081-0.163-3.126-0.259	c-0.451-0.038-0.892-0.086-1.342-0.135c-0.288-0.038-0.518,0.25-0.412,0.528c0.163,0.432,0.316,0.865,0.47,1.307	c0.336,0.98,0.681,1.969,0.997,2.968l0.105,0.346c1.668-1.143,2.963-2.795,3.643-4.736L32.627,28.02z M25.312,15.33l0.048,0.375	c0.134,1.037,0.23,2.085,0.326,3.122c0.038,0.413,0.077,0.817,0.105,1.23c0.019,0.317,0.374,0.48,0.633,0.298	c0.326-0.24,0.662-0.48,1.007-0.711c0.863-0.586,1.716-1.172,2.598-1.739l0.326-0.202C28.984,16.454,27.239,15.599,25.312,15.33z M26.606,33.62c-0.556-0.884-1.074-1.796-1.592-2.699c-0.23-0.394-0.451-0.788-0.662-1.191c-0.153-0.279-0.547-0.279-0.7,0	c-0.221,0.413-0.451,0.817-0.69,1.21c-0.527,0.903-1.055,1.806-1.611,2.69l-0.24,0.384c0.892,0.279,1.841,0.423,2.819,0.423	c1.007,0,1.985-0.154,2.896-0.452L26.606,33.62z M26.606,33.62c-0.556-0.884-1.074-1.796-1.592-2.699	c-0.23-0.394-0.451-0.788-0.662-1.191c-0.153-0.279-0.547-0.279-0.7,0c-0.221,0.413-0.451,0.817-0.69,1.21	c-0.527,0.903-1.055,1.806-1.611,2.69l-0.24,0.384c0.892,0.279,1.841,0.423,2.819,0.423c1.007,0,1.985-0.154,2.896-0.452	L26.606,33.62z M25.312,15.33l0.048,0.375c0.134,1.037,0.23,2.085,0.326,3.122c0.038,0.413,0.077,0.817,0.105,1.23	c0.019,0.317,0.374,0.48,0.633,0.298c0.326-0.24,0.662-0.48,1.007-0.711c0.863-0.586,1.716-1.172,2.598-1.739l0.326-0.202	C28.984,16.454,27.239,15.599,25.312,15.33z M32.627,28.02c-1.045-0.067-2.081-0.163-3.126-0.259	c-0.451-0.038-0.892-0.086-1.342-0.135c-0.288-0.038-0.518,0.25-0.412,0.528c0.163,0.432,0.316,0.865,0.47,1.307	c0.336,0.98,0.681,1.969,0.997,2.968l0.105,0.346c1.668-1.143,2.963-2.795,3.643-4.736L32.627,28.02z M32.119,19.835l-0.259,0.279	c-0.719,0.769-1.457,1.508-2.196,2.248c-0.47,0.48-0.978,0.941-1.467,1.412c0.652,0.163,1.304,0.336,1.956,0.528	c1.007,0.288,2.004,0.567,3.001,0.893l0.355,0.115c0.01-0.154,0.01-0.317,0.01-0.48C33.519,22.996,33.011,21.286,32.119,19.835z M32.119,19.835l-0.259,0.279c-0.719,0.769-1.457,1.508-2.196,2.248c-0.47,0.48-0.978,0.941-1.467,1.412	c0.652,0.163,1.304,0.336,1.956,0.528c1.007,0.288,2.004,0.567,3.001,0.893l0.355,0.115c0.01-0.154,0.01-0.317,0.01-0.48	C33.519,22.996,33.011,21.286,32.119,19.835z M32.627,28.02c-1.045-0.067-2.081-0.163-3.126-0.259	c-0.451-0.038-0.892-0.086-1.342-0.135c-0.288-0.038-0.518,0.25-0.412,0.528c0.163,0.432,0.316,0.865,0.47,1.307	c0.336,0.98,0.681,1.969,0.997,2.968l0.105,0.346c1.668-1.143,2.963-2.795,3.643-4.736L32.627,28.02z M25.312,15.33l0.048,0.375	c0.134,1.037,0.23,2.085,0.326,3.122c0.038,0.413,0.077,0.817,0.105,1.23c0.019,0.317,0.374,0.48,0.633,0.298	c0.326-0.24,0.662-0.48,1.007-0.711c0.863-0.586,1.716-1.172,2.598-1.739l0.326-0.202C28.984,16.454,27.239,15.599,25.312,15.33z M26.606,33.62c-0.556-0.884-1.074-1.796-1.592-2.699c-0.23-0.394-0.451-0.788-0.662-1.191c-0.153-0.279-0.547-0.279-0.7,0	c-0.221,0.413-0.451,0.817-0.69,1.21c-0.527,0.903-1.055,1.806-1.611,2.69l-0.24,0.384c0.892,0.279,1.841,0.423,2.819,0.423	c1.007,0,1.985-0.154,2.896-0.452L26.606,33.62z M25.312,15.33l0.048,0.375c0.134,1.037,0.23,2.085,0.326,3.122	c0.038,0.413,0.077,0.817,0.105,1.23c0.019,0.317,0.374,0.48,0.633,0.298c0.326-0.24,0.662-0.48,1.007-0.711	c0.863-0.586,1.716-1.172,2.598-1.739l0.326-0.202C28.984,16.454,27.239,15.599,25.312,15.33z M32.627,28.02	c-1.045-0.067-2.081-0.163-3.126-0.259c-0.451-0.038-0.892-0.086-1.342-0.135c-0.288-0.038-0.518,0.25-0.412,0.528	c0.163,0.432,0.316,0.865,0.47,1.307c0.336,0.98,0.681,1.969,0.997,2.968l0.105,0.346c1.668-1.143,2.963-2.795,3.643-4.736	L32.627,28.02z M32.119,19.835l-0.259,0.279c-0.719,0.769-1.457,1.508-2.196,2.248c-0.47,0.48-0.978,0.941-1.467,1.412	c0.652,0.163,1.304,0.336,1.956,0.528c1.007,0.288,2.004,0.567,3.001,0.893l0.355,0.115c0.01-0.154,0.01-0.317,0.01-0.48	C33.519,22.996,33.011,21.286,32.119,19.835z M32.119,19.835l-0.259,0.279c-0.719,0.769-1.457,1.508-2.196,2.248	c-0.47,0.48-0.978,0.941-1.467,1.412c0.652,0.163,1.304,0.336,1.956,0.528c1.007,0.288,2.004,0.567,3.001,0.893l0.355,0.115	c0.01-0.154,0.01-0.317,0.01-0.48C33.519,22.996,33.011,21.286,32.119,19.835z M32.627,28.02c-1.045-0.067-2.081-0.163-3.126-0.259	c-0.451-0.038-0.892-0.086-1.342-0.135c-0.288-0.038-0.518,0.25-0.412,0.528c0.163,0.432,0.316,0.865,0.47,1.307	c0.336,0.98,0.681,1.969,0.997,2.968l0.105,0.346c1.668-1.143,2.963-2.795,3.643-4.736L32.627,28.02z M25.312,15.33l0.048,0.375	c0.134,1.037,0.23,2.085,0.326,3.122c0.038,0.413,0.077,0.817,0.105,1.23c0.019,0.317,0.374,0.48,0.633,0.298	c0.326-0.24,0.662-0.48,1.007-0.711c0.863-0.586,1.716-1.172,2.598-1.739l0.326-0.202C28.984,16.454,27.239,15.599,25.312,15.33z M25.312,15.33l0.048,0.375c0.134,1.037,0.23,2.085,0.326,3.122c0.038,0.413,0.077,0.817,0.105,1.23	c0.019,0.317,0.374,0.48,0.633,0.298c0.326-0.24,0.662-0.48,1.007-0.711c0.863-0.586,1.716-1.172,2.598-1.739l0.326-0.202	C28.984,16.454,27.239,15.599,25.312,15.33z M32.119,19.835l-0.259,0.279c-0.719,0.769-1.457,1.508-2.196,2.248	c-0.47,0.48-0.978,0.941-1.467,1.412c0.652,0.163,1.304,0.336,1.956,0.528c1.007,0.288,2.004,0.567,3.001,0.893l0.355,0.115	c0.01-0.154,0.01-0.317,0.01-0.48C33.519,22.996,33.011,21.286,32.119,19.835z M32.119,19.835l-0.259,0.279	c-0.719,0.769-1.457,1.508-2.196,2.248c-0.47,0.48-0.978,0.941-1.467,1.412c0.652,0.163,1.304,0.336,1.956,0.528	c1.007,0.288,2.004,0.567,3.001,0.893l0.355,0.115c0.01-0.154,0.01-0.317,0.01-0.48C33.519,22.996,33.011,21.286,32.119,19.835z M25.312,15.33l0.048,0.375c0.134,1.037,0.23,2.085,0.326,3.122c0.038,0.413,0.077,0.817,0.105,1.23	c0.019,0.317,0.374,0.48,0.633,0.298c0.326-0.24,0.662-0.48,1.007-0.711c0.863-0.586,1.716-1.172,2.598-1.739l0.326-0.202	C28.984,16.454,27.239,15.599,25.312,15.33z M25.312,15.33l0.048,0.375c0.134,1.037,0.23,2.085,0.326,3.122	c0.038,0.413,0.077,0.817,0.105,1.23c0.019,0.317,0.374,0.48,0.633,0.298c0.326-0.24,0.662-0.48,1.007-0.711	c0.863-0.586,1.716-1.172,2.598-1.739l0.326-0.202C28.984,16.454,27.239,15.599,25.312,15.33z M32.119,19.835l-0.259,0.279	c-0.719,0.769-1.457,1.508-2.196,2.248c-0.47,0.48-0.978,0.941-1.467,1.412c0.652,0.163,1.304,0.336,1.956,0.528	c1.007,0.288,2.004,0.567,3.001,0.893l0.355,0.115c0.01-0.154,0.01-0.317,0.01-0.48C33.519,22.996,33.011,21.286,32.119,19.835z M32.119,19.835l-0.259,0.279c-0.719,0.769-1.457,1.508-2.196,2.248c-0.47,0.48-0.978,0.941-1.467,1.412	c0.652,0.163,1.304,0.336,1.956,0.528c1.007,0.288,2.004,0.567,3.001,0.893l0.355,0.115c0.01-0.154,0.01-0.317,0.01-0.48	C33.519,22.996,33.011,21.286,32.119,19.835z M25.312,15.33l0.048,0.375c0.134,1.037,0.23,2.085,0.326,3.122	c0.038,0.413,0.077,0.817,0.105,1.23c0.019,0.317,0.374,0.48,0.633,0.298c0.326-0.24,0.662-0.48,1.007-0.711	c0.863-0.586,1.716-1.172,2.598-1.739l0.326-0.202C28.984,16.454,27.239,15.599,25.312,15.33z M25.312,15.33l0.048,0.375	c0.134,1.037,0.23,2.085,0.326,3.122c0.038,0.413,0.077,0.817,0.105,1.23c0.019,0.317,0.374,0.48,0.633,0.298	c0.326-0.24,0.662-0.48,1.007-0.711c0.863-0.586,1.716-1.172,2.598-1.739l0.326-0.202C28.984,16.454,27.239,15.599,25.312,15.33z M25.312,15.33l0.048,0.375c0.134,1.037,0.23,2.085,0.326,3.122c0.038,0.413,0.077,0.817,0.105,1.23	c0.019,0.317,0.374,0.48,0.633,0.298c0.326-0.24,0.662-0.48,1.007-0.711c0.863-0.586,1.716-1.172,2.598-1.739l0.326-0.202	C28.984,16.454,27.239,15.599,25.312,15.33z"/><path fill="none" d="M12.933,28.231c-0.221,0.019-0.431,0.019-0.681-0.106c-0.297-0.125-0.575-0.202-0.825-0.115	c-0.259,0.048-0.508,0.115-0.757,0.192c-0.499,0.163-0.988,0.346-1.448,0.672c-0.47,0.336-1.122,0.221-1.457-0.25	c-0.326-0.471-0.221-1.124,0.249-1.451c0.24-0.173,0.537-0.231,0.805-0.183c0.547,0.115,1.074,0.077,1.592,0.01	c0.259-0.029,0.518-0.077,0.767-0.144c0.259-0.019,0.489-0.211,0.7-0.451c0.182-0.211,0.393-0.298,0.604-0.375	C12.569,26.781,12.713,27.52,12.933,28.231z"/><path fill="none" d="M20.057,35.686c-0.115,0.211-0.249,0.403-0.518,0.548c-0.278,0.154-0.508,0.336-0.594,0.586	c-0.115,0.231-0.221,0.471-0.307,0.711c-0.173,0.5-0.326,0.999-0.336,1.566c-0.019,0.576-0.508,1.028-1.083,1.009	c-0.575-0.019-1.026-0.499-1.007-1.076c0.01-0.298,0.144-0.557,0.345-0.74c0.422-0.384,0.71-0.826,0.978-1.268	c0.125-0.231,0.24-0.461,0.345-0.701c0.134-0.221,0.125-0.519,0.067-0.836c-0.067-0.298,0-0.538,0.077-0.759	C18.667,35.11,19.348,35.436,20.057,35.686z"/><path fill="none" d="M31.438,39.788c-0.393,0.423-1.045,0.451-1.477,0.067c-0.221-0.202-0.336-0.471-0.336-0.749	c-0.019-0.567-0.163-1.066-0.336-1.566c-0.086-0.24-0.182-0.48-0.297-0.72c-0.086-0.25-0.316-0.423-0.595-0.586	c-0.268-0.144-0.403-0.346-0.537-0.567c0.719-0.259,1.409-0.596,2.052-0.989v0.01c0.077,0.25,0.163,0.49,0.086,0.817	c-0.067,0.317-0.077,0.605,0.058,0.836c0.105,0.231,0.221,0.471,0.345,0.692c0.259,0.451,0.547,0.903,0.968,1.278	C31.793,38.702,31.822,39.356,31.438,39.788z"/><path fill="none" d="M39.646,28.846c-0.288,0.067-0.575,0-0.805-0.144c-0.47-0.317-0.968-0.49-1.467-0.634	c-0.249-0.067-0.508-0.125-0.757-0.163c-0.249-0.077-0.537,0-0.825,0.134c-0.288,0.163-0.547,0.135-0.815,0.115h-0.029	c0.221-0.72,0.364-1.47,0.441-2.238h0.01c0.249,0.077,0.499,0.144,0.719,0.403c0.221,0.231,0.451,0.403,0.71,0.423	c0.259,0.058,0.508,0.096,0.767,0.125c0.527,0.048,1.045,0.067,1.601-0.058c0.566-0.125,1.122,0.231,1.246,0.797	C40.566,28.164,40.211,28.721,39.646,28.846z"/></svg>