<svg width="300" height="298" viewBox="0 0 507 504" fill="none" xmlns="http://www.w3.org/2000/svg">
<mask id="mask0_11427_8297" style="mask-type:alpha" maskUnits="userSpaceOnUse" x="15" y="0" width="480" height="480">
<rect width="480" height="480" transform="translate(15)" fill="url(#paint0_radial_11427_8297)"/>
</mask>
<g mask="url(#mask0_11427_8297)">
<g clip-path="url(#clip0_11427_8297)">
<g clip-path="url(#clip1_11427_8297)">
<line x1="15.5" x2="15.5" y2="480" stroke="#EAECF0"/>
<line x1="47.5" x2="47.5" y2="480" stroke="#EAECF0"/>
<line x1="79.5" x2="79.5" y2="480" stroke="#EAECF0"/>
<line x1="111.5" x2="111.5" y2="480" stroke="#EAECF0"/>
<line x1="143.5" x2="143.5" y2="480" stroke="#EAECF0"/>
<line x1="175.5" x2="175.5" y2="480" stroke="#EAECF0"/>
<line x1="207.5" x2="207.5" y2="480" stroke="#EAECF0"/>
<line x1="239.5" x2="239.5" y2="480" stroke="#EAECF0"/>
<line x1="271.5" x2="271.5" y2="480" stroke="#EAECF0"/>
<line x1="303.5" x2="303.5" y2="480" stroke="#EAECF0"/>
<line x1="335.5" x2="335.5" y2="480" stroke="#EAECF0"/>
<line x1="367.5" x2="367.5" y2="480" stroke="#EAECF0"/>
<line x1="399.5" x2="399.5" y2="480" stroke="#EAECF0"/>
<line x1="431.5" x2="431.5" y2="480" stroke="#EAECF0"/>
<line x1="463.5" x2="463.5" y2="480" stroke="#EAECF0"/>
</g>
<rect x="15.5" y="0.5" width="479" height="479" stroke="#EAECF0"/>
<g clip-path="url(#clip2_11427_8297)">
<line x1="15" y1="31.5" x2="495" y2="31.5" stroke="#EAECF0"/>
<line x1="15" y1="63.5" x2="495" y2="63.5" stroke="#EAECF0"/>
<line x1="15" y1="95.5" x2="495" y2="95.5" stroke="#EAECF0"/>
<line x1="15" y1="127.5" x2="495" y2="127.5" stroke="#EAECF0"/>
<line x1="15" y1="159.5" x2="495" y2="159.5" stroke="#EAECF0"/>
<line x1="15" y1="191.5" x2="495" y2="191.5" stroke="#EAECF0"/>
<line x1="15" y1="223.5" x2="495" y2="223.5" stroke="#EAECF0"/>
<line x1="15" y1="255.5" x2="495" y2="255.5" stroke="#EAECF0"/>
<line x1="15" y1="287.5" x2="495" y2="287.5" stroke="#EAECF0"/>
<line x1="15" y1="319.5" x2="495" y2="319.5" stroke="#EAECF0"/>
<line x1="15" y1="351.5" x2="495" y2="351.5" stroke="#EAECF0"/>
<line x1="15" y1="383.5" x2="495" y2="383.5" stroke="#EAECF0"/>
<line x1="15" y1="415.5" x2="495" y2="415.5" stroke="#EAECF0"/>
<line x1="15" y1="447.5" x2="495" y2="447.5" stroke="#EAECF0"/>
<line x1="15" y1="479.5" x2="495" y2="479.5" stroke="#EAECF0"/>
</g>
<rect x="15.5" y="0.5" width="479" height="479" stroke="#EAECF0"/>
</g>
</g>
<g filter="url(#filter0_b_11427_8297)">
<path d="M373 243C373 308.17 320.17 361 255 361C189.83 361 137 308.17 137 243C137 177.83 189.83 125 255 125C320.17 125 373 177.83 373 243Z" fill="#F1F3F5"/>
</g>
<path d="M205 283.078C205 255.634 224.028 233.386 247.5 233.386C270.972 233.386 290 255.634 290 283.078H205Z" fill="#A7ACB5"/>
<circle cx="246.903" cy="211.211" r="26.2113" fill="#A7ACB5"/>
<g filter="url(#filter1_b_11427_8297)">
<path d="M304.889 237.944C304.889 250.616 294.616 260.889 281.944 260.889C269.273 260.889 259 250.616 259 237.944C259 225.273 269.273 215 281.944 215C294.616 215 304.889 225.273 304.889 237.944Z" fill="#F6F6F6" fill-opacity="0.2"/>
<path d="M318 274L298.333 254.333M304.889 237.944C304.889 250.616 294.616 260.889 281.944 260.889C269.273 260.889 259 250.616 259 237.944C259 225.273 269.273 215 281.944 215C294.616 215 304.889 225.273 304.889 237.944Z" stroke="#8F9298" stroke-width="8" stroke-linecap="round" stroke-linejoin="round"/>
</g>
<defs>
<filter id="filter0_b_11427_8297" x="113" y="101" width="284" height="284" filterUnits="userSpaceOnUse" color-interpolation-filters="sRGB">
<feFlood flood-opacity="0" result="BackgroundImageFix"/>
<feGaussianBlur in="BackgroundImageFix" stdDeviation="12"/>
<feComposite in2="SourceAlpha" operator="in" result="effect1_backgroundBlur_11427_8297"/>
<feBlend mode="normal" in="SourceGraphic" in2="effect1_backgroundBlur_11427_8297" result="shape"/>
</filter>
<filter id="filter1_b_11427_8297" x="252" y="208" width="73" height="73" filterUnits="userSpaceOnUse" color-interpolation-filters="sRGB">
<feFlood flood-opacity="0" result="BackgroundImageFix"/>
<feGaussianBlur in="BackgroundImageFix" stdDeviation="1.5"/>
<feComposite in2="SourceAlpha" operator="in" result="effect1_backgroundBlur_11427_8297"/>
<feBlend mode="normal" in="SourceGraphic" in2="effect1_backgroundBlur_11427_8297" result="shape"/>
</filter>
<radialGradient id="paint0_radial_11427_8297" cx="0" cy="0" r="1" gradientUnits="userSpaceOnUse" gradientTransform="translate(240 240) rotate(90) scale(240 240)">
<stop/>
<stop offset="1" stop-opacity="0"/>
</radialGradient>
<clipPath id="clip0_11427_8297">
<rect width="480" height="480" fill="white" transform="translate(15)"/>
</clipPath>
<clipPath id="clip1_11427_8297">
<rect x="15" width="480" height="480" fill="white"/>
</clipPath>
<clipPath id="clip2_11427_8297">
<rect x="15" width="480" height="480" fill="white"/>
</clipPath>
</defs>
</svg>
