<svg width="16" height="16" viewBox="0 0 16 16" fill="none" xmlns="http://www.w3.org/2000/svg">
<path d="M15.5 8C15.5 12.1421 12.1421 15.5 8 15.5C3.85786 15.5 0.5 12.1421 0.5 8C0.5 3.85786 3.85786 0.5 8 0.5C12.1421 0.5 15.5 3.85786 15.5 8ZM8 5.5C8.82843 5.5 9.5 4.82843 9.5 4C9.5 3.17157 8.82843 2.5 8 2.5C7.17157 2.5 6.5 3.17157 6.5 4C6.5 4.82843 7.17157 5.5 8 5.5ZM7 6.5C6.17157 6.5 5.5 7.17157 5.5 8C5.5 8.65311 5.9174 9.20873 6.5 9.41465V12C6.5 12.8284 7.17157 13.5 8 13.5H9C9.82843 13.5 10.5 12.8284 10.5 12C10.5 11.3469 10.0826 10.7913 9.5 10.5854V8C9.5 7.17157 8.82843 6.5 8 6.5H7Z" fill="#DC3D43" stroke="#DC3D43"/>
</svg>
