<svg width="24" height="24" viewBox="0 0 24 24" fill="none" xmlns="http://www.w3.org/2000/svg">
<path fill-rule="evenodd" clip-rule="evenodd" d="M12 24C18.6275 24 24 18.6275 24 12C24 5.37258 18.6275 0 12 0C5.37258 0 0 5.37258 0 12C0 18.6275 5.37258 24 12 24ZM17.6705 9.4205C18.1098 8.98116 18.1098 8.26884 17.6705 7.8295C17.2311 7.39017 16.5189 7.39017 16.0795 7.8295L10.125 13.784L7.9205 11.5795C7.48116 11.1402 6.76884 11.1402 6.3295 11.5795C5.89017 12.0188 5.89017 12.7312 6.3295 13.1705L9.3295 16.1705C9.76884 16.6098 10.4812 16.6098 10.9205 16.1705L17.6705 9.4205Z" fill="#22C55E"/>
</svg>
