<svg width="1445" height="1117" viewBox="0 0 1445 1117" fill="none" xmlns="http://www.w3.org/2000/svg">
<path fill-rule="evenodd" clip-rule="evenodd" d="M863.924 883.108C863.885 883.12 863.85 883.131 863.812 883.143C863.789 883.151 863.765 883.159 863.741 883.168C635.444 961.983 530.305 1007.67 482.983 1031.36C459.712 1043.01 438.73 1058.9 421.662 1078.95C420.274 1080.58 418.899 1082.22 417.536 1083.87C404.639 1099.41 396.275 1118.45 393.391 1138.84C392.449 1145.1 390.196 1167.39 387.636 1192.7C385.61 1212.74 383.391 1234.68 381.479 1252.08C378.825 1277.65 382.387 1303.61 391.84 1327.63L393.357 1330.88L393.569 1331.7C402.664 1353.45 411.646 1369.13 427.785 1386C434.71 1393.24 446.785 1400.69 451.519 1403.61C452.169 1404.01 452.681 1404.33 453.022 1404.55C569.514 1479.07 1161.48 1564.04 1249.98 1576.74L1253.06 1577.18C1258.46 1577.96 1263.86 1578.68 1269.28 1579.1C1291.74 1580.87 1314.29 1580.09 1336.51 1576.78C1347.32 1575.14 1357.73 1571.58 1367.28 1566.25C1372.23 1563.1 1376.82 1559.46 1381 1555.38C1394.34 1542.4 1402.02 1524.35 1405.31 1505.57C1408.83 1485.49 1401.46 1432.8 1397.05 1401.3C1396.5 1397.37 1396 1393.77 1395.56 1390.61C1394.98 1386.31 1394.27 1382.11 1393.42 1377.84C1383.03 1325.58 1315.55 996.714 1236.64 863.054C1227.33 847.818 1215.78 834.16 1202.4 822.585C1191.06 812.326 1176.45 806.808 1161.52 807.144C1155.38 807.353 1149.27 807.726 1143.13 808.279C1119.35 810.736 1095.75 814.615 1072.44 819.895C1061.55 822.416 1050.98 825.135 1040.21 827.907C1033.08 829.74 1025.87 831.597 1018.41 833.434C1005.35 836.651 944.135 856.797 902.134 870.619C884.03 876.577 869.493 881.361 863.924 883.108ZM1073.12 822.818C1062.24 825.334 1051.75 828.034 1041.02 830.796C1033.89 832.63 1026.66 834.492 1019.13 836.347C1009.9 838.619 975.939 849.575 941.816 860.743C928.413 865.129 915.008 869.541 903.128 873.451C884.918 879.443 870.293 884.257 864.752 885.992C636.477 964.799 531.475 1010.44 484.326 1034.04C461.386 1045.53 440.733 1061.18 423.946 1080.89C422.569 1082.51 421.203 1084.14 419.85 1085.78L419.845 1085.79C407.31 1100.89 399.169 1119.41 396.361 1139.26L396.359 1139.27L396.357 1139.28C395.424 1145.49 393.19 1167.59 390.642 1192.79C388.614 1212.85 386.388 1234.88 384.462 1252.4C381.863 1277.45 385.347 1302.9 394.598 1326.44L396.192 1329.86L396.419 1330.73C405.388 1352.15 414.186 1367.45 429.953 1383.93C436.566 1390.84 448.183 1398.02 453.019 1401.01C453.708 1401.44 454.259 1401.78 454.638 1402.02C483.652 1420.58 543.127 1440.02 617.735 1458.9C692.182 1477.73 781.235 1495.91 869.046 1512.08C1040.33 1543.62 1206.72 1567.5 1250.41 1573.77L1253.49 1574.21C1258.87 1574.99 1264.19 1575.69 1269.52 1576.11C1291.75 1577.86 1314.07 1577.09 1336.07 1573.81C1346.48 1572.24 1356.53 1568.81 1365.74 1563.67C1370.48 1560.65 1374.89 1557.15 1378.91 1553.23C1391.67 1540.81 1399.14 1523.41 1402.36 1505.05C1403.29 1499.75 1403.43 1491.8 1403.01 1482.23C1402.59 1472.71 1401.62 1461.8 1400.4 1450.66C1398.5 1433.31 1396.01 1415.53 1394.08 1401.74C1393.53 1397.81 1393.02 1394.2 1392.59 1391.02C1392.01 1386.77 1391.32 1382.63 1390.48 1378.43C1385.29 1352.33 1365.84 1257.11 1337.83 1151.74C1309.79 1046.27 1273.28 931.033 1234.07 864.601C1224.92 849.634 1213.57 836.22 1200.43 824.854L1200.41 824.832L1200.38 824.81C1189.6 815.056 1175.74 809.829 1161.6 810.143C1155.53 810.35 1149.49 810.719 1143.42 811.265C1119.77 813.71 1096.29 817.567 1073.12 822.818Z" fill="url(#paint0_linear_803_1552)"/>
<path fill-rule="evenodd" clip-rule="evenodd" d="M405.404 6.26141C405.368 6.24512 405.334 6.22993 405.298 6.214C405.275 6.20446 405.251 6.19494 405.228 6.1854C181.853 -85.6572 72.7687 -120.906 21.6063 -134.43C-3.55199 -141.081 -29.8019 -143.034 -55.8603 -139.283C-57.9784 -138.979 -60.096 -138.657 -62.2102 -138.319C-82.1632 -135.188 -101.028 -126.435 -116.671 -113.053C-121.519 -108.977 -137.946 -93.7497 -156.608 -76.4499C-171.38 -62.7567 -187.552 -47.7652 -200.492 -35.9784C-219.389 -18.5555 -233.884 3.27484 -242.674 27.5423L-243.689 30.9867L-244.069 31.7382C-251.629 54.0691 -255.264 71.7754 -254.314 95.1038C-253.906 105.114 -249.773 118.685 -248.153 124.006C-247.93 124.737 -247.755 125.313 -247.644 125.702C-209.538 258.638 178.342 713.827 236.329 781.877L238.346 784.244C241.883 788.396 245.455 792.504 249.246 796.414C264.926 812.591 282.353 826.915 301.216 839.125C310.399 845.045 320.564 849.258 331.26 851.573C337.049 852.482 342.904 852.785 348.737 852.496C367.327 851.574 385.026 843.119 399.917 831.202C415.826 818.47 445.139 774.068 462.664 747.521C464.848 744.212 466.85 741.18 468.619 738.522C471.025 734.903 473.271 731.287 475.456 727.527C502.221 681.453 669.064 390.126 698.256 237.681C701.351 220.099 701.715 202.212 699.332 184.682C697.609 169.487 690.301 155.69 678.878 146.067C674.131 142.162 669.306 138.405 664.336 134.762C644.868 120.876 624.598 108.178 603.624 96.7285C593.786 91.416 584.061 86.468 574.146 81.4233C567.59 78.088 560.952 74.7105 554.143 71.1575C542.214 64.9311 482.974 39.5655 442.326 22.1605C424.806 14.6584 410.738 8.63444 405.404 6.26141ZM602.197 99.3674C592.377 94.0649 582.724 89.1537 572.845 84.1279C566.286 80.7908 559.627 77.4033 552.754 73.817C544.331 69.4201 511.607 55.1789 478.625 40.992C465.67 35.4194 452.697 29.8644 441.2 24.9415C423.577 17.3957 409.423 11.3351 404.119 8.97294C180.766 -82.8615 71.8153 -118.055 20.8396 -131.529C-3.96044 -138.086 -29.804 -140.003 -55.4329 -136.314C-57.535 -136.012 -59.6378 -135.693 -61.7364 -135.357L-61.7451 -135.356C-81.1381 -132.312 -99.4915 -123.802 -114.721 -110.773L-114.731 -110.765L-114.741 -110.756C-119.545 -106.718 -135.837 -91.6142 -154.41 -74.3964C-169.199 -60.6872 -185.434 -45.6374 -198.466 -33.7651C-216.982 -16.6914 -231.193 4.6986 -239.822 28.4783L-240.888 32.0962L-241.295 32.9011C-248.728 54.8978 -252.244 72.1913 -251.317 94.9816C-250.927 104.54 -246.959 117.607 -245.308 123.047C-245.072 123.821 -244.884 124.441 -244.76 124.874C-235.269 157.983 -203.507 211.894 -160.024 275.391C-116.634 338.751 -61.8487 411.273 -6.67017 481.469C100.961 618.393 209.986 746.337 238.614 779.932L240.629 782.298C244.158 786.44 247.679 790.488 251.4 794.326C266.922 810.339 284.173 824.519 302.843 836.605C311.698 842.313 321.498 846.38 331.81 848.623C337.366 849.489 342.987 849.777 348.588 849.499C366.371 848.618 383.484 840.511 398.042 828.859C402.245 825.496 407.608 819.63 413.619 812.17C419.594 804.755 426.084 795.924 432.538 786.759C442.583 772.493 452.475 757.509 460.144 745.893C462.334 742.575 464.342 739.533 466.122 736.859C468.493 733.293 470.707 729.729 472.861 726.02C486.229 703.009 534.596 618.72 583.261 521.154C631.973 423.494 680.79 312.906 695.305 237.142C698.344 219.868 698.699 202.3 696.359 185.086L696.355 185.053L696.351 185.02C694.713 170.573 687.772 157.487 676.957 148.373C672.262 144.51 667.492 140.796 662.579 137.194C643.217 123.384 623.057 110.755 602.197 99.3674Z" fill="url(#paint1_linear_803_1552)"/>
<defs>
<linearGradient id="paint0_linear_803_1552" x1="271.445" y1="1125.62" x2="1435.92" y2="1395.54" gradientUnits="userSpaceOnUse">
<stop stop-color="#F87216"/>
<stop offset="1" stop-color="#F87216" stop-opacity="0.07"/>
</linearGradient>
<linearGradient id="paint1_linear_803_1552" x1="-199.411" y1="-203.603" x2="495.633" y2="768.9" gradientUnits="userSpaceOnUse">
<stop stop-color="#F87216"/>
<stop offset="1" stop-color="#F87216" stop-opacity="0.07"/>
</linearGradient>
</defs>
</svg>
