<svg width="245" height="177" viewBox="0 0 245 177" fill="none" xmlns="http://www.w3.org/2000/svg">
<mask id="mask0_1_2377" style="mask-type:alpha" maskUnits="userSpaceOnUse" x="0" y="0" width="245" height="177">
<path d="M0 0H245V177H0V0Z" fill="white"/>
</mask>
<g mask="url(#mask0_1_2377)">
<rect width="245" height="177" fill="#FB923C"/>
<ellipse cx="240.5" cy="43.9911" rx="115.5" ry="119.553" fill="url(#paint0_radial_1_2377)"/>
<ellipse cx="-22.5002" cy="16.5613" rx="115.5" ry="92.1228" fill="url(#paint1_radial_1_2377)"/>
<ellipse cx="-22.5002" cy="16.5613" rx="115.5" ry="92.1228" fill="url(#paint2_radial_1_2377)"/>
<ellipse cx="-22.5002" cy="16.5613" rx="115.5" ry="92.1228" fill="url(#paint3_radial_1_2377)"/>
<ellipse cx="47.5002" cy="-69.8683" rx="115.5" ry="119.553" fill="url(#paint4_radial_1_2377)"/>
<ellipse cx="47.5002" cy="-69.8683" rx="115.5" ry="119.553" fill="url(#paint5_radial_1_2377)"/>
<ellipse cx="47.5002" cy="-69.8683" rx="115.5" ry="119.553" fill="url(#paint6_radial_1_2377)"/>
<ellipse cx="143.5" cy="-38.8155" rx="115.5" ry="119.553" fill="url(#paint7_radial_1_2377)"/>
<ellipse cx="116.1" cy="58.1973" rx="116.1" ry="58.1973" transform="matrix(0.919373 0.393386 -0.370884 0.928679 -71.6555 7.41211)" fill="url(#paint8_radial_1_2377)"/>
<path opacity="0.9" d="M29.4223 163.067C18.5765 163.067 5.28833 84.6448 0 45.4337V177.513H246.051V22.7326C240.859 14.8216 227.937 -0.794017 217.783 0.0314786C205.091 1.06335 204.803 72.2623 191.534 74.3261C178.265 76.3898 166.727 171.322 156.054 171.322C145.381 171.322 138.458 123.856 125.766 123.856C113.074 123.856 101.247 45.4337 92.3054 45.4337C83.3633 45.4337 66.056 97.0272 53.9409 98.0591C41.8259 99.091 42.9797 163.067 29.4223 163.067Z" fill="url(#paint9_linear_1_2377)"/>
<path d="M0 45.7151C5.28833 85.1689 18.5765 164.077 29.4223 164.077C42.9797 164.077 41.8259 99.7045 53.9409 98.6663C66.056 97.628 83.3633 45.7151 92.3054 45.7151C101.247 45.7151 113.074 124.623 125.766 124.623C138.458 124.623 145.381 172.383 156.054 172.383C166.727 172.383 178.265 76.8628 191.534 74.7863C204.803 72.7098 205.091 1.06993 217.783 0.0316735C227.937 -0.798933 240.859 14.9134 246.051 22.8734" stroke="#ED5F00"/>
</g>
<defs>
<radialGradient id="paint0_radial_1_2377" cx="0" cy="0" r="1" gradientUnits="userSpaceOnUse" gradientTransform="translate(240.5 43.9911) rotate(90) scale(119.553 115.5)">
<stop stop-color="#F76808"/>
<stop offset="1" stop-color="#F76808" stop-opacity="0"/>
</radialGradient>
<radialGradient id="paint1_radial_1_2377" cx="0" cy="0" r="1" gradientUnits="userSpaceOnUse" gradientTransform="translate(-22.5002 16.5613) rotate(90) scale(92.1228 115.5)">
<stop stop-color="#C21700"/>
<stop offset="1" stop-color="#FF0000" stop-opacity="0"/>
</radialGradient>
<radialGradient id="paint2_radial_1_2377" cx="0" cy="0" r="1" gradientUnits="userSpaceOnUse" gradientTransform="translate(-22.5002 16.5613) rotate(90) scale(92.1228 115.5)">
<stop stop-color="#C21700"/>
<stop offset="1" stop-color="#FF0000" stop-opacity="0"/>
</radialGradient>
<radialGradient id="paint3_radial_1_2377" cx="0" cy="0" r="1" gradientUnits="userSpaceOnUse" gradientTransform="translate(-22.5002 16.5613) rotate(90) scale(92.1228 115.5)">
<stop stop-color="#C21700"/>
<stop offset="1" stop-color="#FF0000" stop-opacity="0"/>
</radialGradient>
<radialGradient id="paint4_radial_1_2377" cx="0" cy="0" r="1" gradientUnits="userSpaceOnUse" gradientTransform="translate(47.5002 -69.8683) rotate(90) scale(119.553 115.5)">
<stop stop-color="#C21700"/>
<stop offset="1" stop-color="#FF0000" stop-opacity="0"/>
</radialGradient>
<radialGradient id="paint5_radial_1_2377" cx="0" cy="0" r="1" gradientUnits="userSpaceOnUse" gradientTransform="translate(47.5002 -69.8683) rotate(90) scale(119.553 115.5)">
<stop stop-color="#C21700"/>
<stop offset="1" stop-color="#FF0000" stop-opacity="0"/>
</radialGradient>
<radialGradient id="paint6_radial_1_2377" cx="0" cy="0" r="1" gradientUnits="userSpaceOnUse" gradientTransform="translate(47.5002 -69.8683) rotate(90) scale(119.553 115.5)">
<stop stop-color="#C21700"/>
<stop offset="1" stop-color="#FF0000" stop-opacity="0"/>
</radialGradient>
<radialGradient id="paint7_radial_1_2377" cx="0" cy="0" r="1" gradientUnits="userSpaceOnUse" gradientTransform="translate(143.5 -38.8155) rotate(90) scale(119.553 115.5)">
<stop stop-color="#F76808"/>
<stop offset="1" stop-color="#F76808" stop-opacity="0"/>
</radialGradient>
<radialGradient id="paint8_radial_1_2377" cx="0" cy="0" r="1" gradientUnits="userSpaceOnUse" gradientTransform="translate(116.1 58.1973) rotate(90) scale(58.1973 116.1)">
<stop stop-color="#F76808"/>
<stop offset="1" stop-color="#F76808" stop-opacity="0"/>
</radialGradient>
<linearGradient id="paint9_linear_1_2377" x1="123" y1="208.57" x2="123" y2="99.886" gradientUnits="userSpaceOnUse">
<stop stop-color="#ED6D30"/>
<stop offset="1" stop-color="white"/>
</linearGradient>
</defs>
</svg>
