<svg width="14" height="12" viewBox="0 0 14 12" fill="none" xmlns="http://www.w3.org/2000/svg">
<path fill-rule="evenodd" clip-rule="evenodd" d="M6.39364 0.423489C6.82227 0.530648 7.08288 0.964996 6.97572 1.39363L6.62423 2.7996H8.97499L9.4235 1.00557C9.53065 0.576939 9.965 0.31633 10.3936 0.423489C10.8223 0.530648 11.0829 0.964996 10.9757 1.39363L10.6242 2.7996H12.5996C13.0414 2.7996 13.3996 3.15778 13.3996 3.5996C13.3996 4.04143 13.0414 4.3996 12.5996 4.3996H10.2242L9.42423 7.5996H10.9996C11.4414 7.5996 11.7996 7.95778 11.7996 8.3996C11.7996 8.84143 11.4414 9.1996 10.9996 9.1996H9.02423L8.57572 10.9936C8.46856 11.4223 8.03422 11.6829 7.60558 11.5757C7.17694 11.4686 6.91634 11.0342 7.0235 10.6056L7.37499 9.1996H5.02423L4.57572 10.9936C4.46856 11.4223 4.03422 11.6829 3.60558 11.5757C3.17694 11.4686 2.91634 11.0342 3.0235 10.6056L3.37499 9.1996H1.39961C0.957782 9.1996 0.599609 8.84143 0.599609 8.3996C0.599609 7.95778 0.957782 7.5996 1.39961 7.5996H3.77499L4.57499 4.3996H2.99961C2.55778 4.3996 2.19961 4.04143 2.19961 3.5996C2.19961 3.15778 2.55778 2.7996 2.99961 2.7996H4.97499L5.4235 1.00557C5.53065 0.576939 5.965 0.31633 6.39364 0.423489ZM6.22423 4.3996L5.42423 7.5996H7.77499L8.57499 4.3996H6.22423Z" fill="#0081F1"/>
</svg>
