<svg width="87" height="89" viewBox="0 0 87 89" fill="none" xmlns="http://www.w3.org/2000/svg">
<path fill-rule="evenodd" clip-rule="evenodd" d="M73.606 24.7654C69.042 21.4314 63.0401 17.9803 57.0483 15.8194C51.0262 13.6476 44.8631 12.3131 39.7446 11.5818C34.5961 10.8463 30.5975 10.7342 28.8842 10.9552C27.9316 11.078 27.0803 11.8859 26.8512 12.699C26.746 13.0722 26.7915 13.3708 26.935 13.5976C27.081 13.8285 27.4291 14.1429 28.2385 14.3349C29.7361 14.6902 31.0163 14.587 32.613 14.4584L32.6291 14.4571C34.2298 14.3282 36.0732 14.1866 38.4786 14.5971C39.0438 14.6936 39.4237 15.23 39.3273 15.7951C39.2308 16.3603 38.6944 16.7403 38.1293 16.6438C35.9951 16.2795 34.3705 16.3998 32.7958 16.5267C32.756 16.5299 32.7162 16.5331 32.6763 16.5363C31.1434 16.6602 29.5784 16.7866 27.7593 16.3551C26.5906 16.0778 25.6972 15.5248 25.1802 14.7074C24.6607 13.886 24.6218 12.9555 24.8528 12.1358C25.2959 10.5633 26.799 9.13069 28.6186 8.89599C30.6176 8.63816 34.8414 8.784 40.0383 9.52646C45.2652 10.2732 51.5705 11.6367 57.7527 13.8663C63.9651 16.1068 70.1403 19.6625 74.8308 23.0888C77.1766 24.8024 79.1738 26.5001 80.6286 28.0049C81.3553 28.7566 81.9628 29.4766 82.4124 30.1405C82.8485 30.7842 83.1964 31.4618 83.2949 32.1171C83.4462 33.1231 83.3357 34.0608 82.8649 34.7974C82.3743 35.5649 81.5903 35.9603 80.7386 36.0265C79.1268 36.1518 77.258 35.1396 75.697 33.4009C75.314 32.9743 75.3493 32.3179 75.7759 31.9349C76.2026 31.5519 76.8589 31.5872 77.2419 32.0138C78.6053 33.5323 79.8927 34.0097 80.5777 33.9565C80.8743 33.9334 81.0238 33.8226 81.1155 33.6792C81.2268 33.5051 81.3472 33.1274 81.2417 32.4259C81.2119 32.2274 81.0678 31.8576 80.6934 31.3048C80.3326 30.7722 79.8112 30.1466 79.1359 29.4481C77.7868 28.0526 75.8874 26.4318 73.606 24.7654Z" fill="#FFB13C"/>
<path fill-rule="evenodd" clip-rule="evenodd" d="M49.4001 21.9536C48.8252 21.831 48.2528 21.7089 47.6787 21.5804C43.174 20.5725 36.7259 19.5129 33.3493 19.2606C32.9556 19.2312 32.5843 19.394 32.2087 19.9371C31.8123 20.51 31.4956 21.4111 31.3219 22.5487C30.9747 24.8226 31.2568 27.64 32.1061 29.6263C32.3315 30.1534 32.0868 30.7635 31.5597 30.9889C31.0325 31.2143 30.4224 30.9697 30.197 30.4425C29.1749 28.0519 28.8723 24.836 29.2694 22.2353C29.4679 20.9357 29.8556 19.6891 30.5011 18.7559C31.1674 17.7927 32.1755 17.0909 33.504 17.1901C37.0159 17.4525 43.5701 18.5335 48.1321 19.5543C48.6907 19.6793 49.2536 19.7991 49.8243 19.9206C53.8498 20.7777 58.262 21.7171 64.2655 25.1223C70.0952 28.4289 72.3741 31.4826 74.5603 34.4121C74.9658 34.9555 75.3682 35.4946 75.7894 36.0303C76.5878 37.0457 76.9785 38.0815 76.9863 39.1343C76.9939 40.1708 76.6292 41.1051 76.1339 41.9275C75.6418 42.7447 74.9856 43.5083 74.3357 44.2113C74.0648 44.5045 73.8031 44.779 73.5484 45.0461C73.1602 45.4533 72.7882 45.8435 72.4243 46.2569C69.9166 49.1055 63.7817 54.3726 57.1662 58.6617C56.6852 58.9736 56.0423 58.8365 55.7304 58.3554C55.4185 57.8744 55.5557 57.2315 56.0367 56.9196C62.5477 52.6982 68.5204 47.5493 70.8659 44.885C71.2477 44.4512 71.6801 43.997 72.096 43.5602C72.3451 43.2985 72.5882 43.0431 72.811 42.8021C73.44 42.1215 73.9769 41.4847 74.3553 40.8563C74.7306 40.2332 74.914 39.677 74.9101 39.1496C74.9063 38.6385 74.7261 38.0371 74.1573 37.3136C73.7102 36.7451 73.2921 36.1856 72.8781 35.6318C70.721 32.7457 68.6777 30.0119 63.2412 26.9283C57.5266 23.687 53.4002 22.8068 49.4001 21.9536Z" fill="#FFD940"/>
<path fill-rule="evenodd" clip-rule="evenodd" d="M39.5841 36.5573C37.5475 35.0646 34.7385 34.002 31.642 34.0372C31.0687 34.0437 30.5987 33.5842 30.5922 33.0109C30.5856 32.4376 31.0451 31.9676 31.6184 31.9611C35.1963 31.9204 38.439 33.1439 40.8115 34.8827C43.1406 36.5898 44.8105 38.939 44.8753 41.2481C44.9909 45.3694 43.1218 48.1466 40.2985 50.5805C38.763 51.9042 36.2572 52.826 34.1249 52.9381C33.0581 52.9942 31.9399 52.8563 31.0551 52.3267C30.0934 51.7512 29.5204 50.776 29.5462 49.4905C29.5839 47.6151 29.7977 44.3284 29.9997 41.5346C30.1011 40.1325 30.2001 38.8461 30.2738 37.9104C30.3107 37.4424 30.3412 37.062 30.3625 36.7985C30.3731 36.6668 30.3815 36.5642 30.3872 36.4945L30.3959 36.3879C30.396 36.3878 30.396 36.3878 31.3911 36.47L30.3959 36.3879C30.4431 35.8165 30.9446 35.3914 31.516 35.4386C32.0874 35.4858 32.5124 35.9873 32.4652 36.5587L31.4865 36.4779C32.4652 36.5587 32.4652 36.5586 32.4652 36.5587L32.4651 36.5591L32.4565 36.6638C32.4509 36.7329 32.4426 36.8348 32.432 36.9659C32.4108 37.2281 32.3804 37.6071 32.3436 38.0733C32.2702 39.006 32.1715 40.2878 32.0706 41.6843C31.8679 44.4877 31.6585 47.72 31.6221 49.5323C31.6108 50.0906 31.8141 50.3613 32.1214 50.5452C32.5055 50.7751 33.149 50.9103 34.0158 50.8647C35.7508 50.7735 37.8003 49.9929 38.9429 49.0079C41.4757 46.8244 42.8922 44.5969 42.7999 41.3063C42.7607 39.9095 41.664 38.0818 39.5841 36.5573Z" fill="#FF542F"/>
<path fill-rule="evenodd" clip-rule="evenodd" d="M50.8234 56.9907C52.3184 57.8922 53.4708 59.239 53.9672 60.709C54.1507 61.2522 54.7397 61.5438 55.2829 61.3604C55.8261 61.177 56.1178 60.5879 55.9343 60.0447C55.2565 58.0373 53.7413 56.3257 51.8956 55.2127C50.0469 54.0978 47.7864 53.5353 45.5647 53.9362C43.4057 54.3258 41.8269 55.2905 40.7021 56.6331C39.5957 57.9538 38.9812 59.5768 38.6175 61.2134C38.2086 63.0536 38.6688 64.9082 39.6403 66.1656C40.6251 67.44 42.2871 68.2244 44.0395 67.3725C45.2367 66.7906 47.3947 65.6898 49.2438 64.7396C50.1704 64.2634 51.0228 63.8233 51.6435 63.5023C51.9539 63.3418 52.2064 63.211 52.3813 63.1203L52.6538 62.979C52.6539 62.979 52.6539 62.979 52.1976 62.1001L52.6538 62.979C53.1626 62.7149 53.3611 62.0882 53.0969 61.5793C52.8327 61.0705 52.2061 60.8721 51.6972 61.1363L52.149 62.0066C51.6972 61.1363 51.6972 61.1363 51.6972 61.1363L51.4259 61.277C51.2515 61.3674 50.9995 61.4979 50.6897 61.6581C50.0701 61.9786 49.2194 62.4178 48.2948 62.8929C46.4415 63.8453 44.3045 64.9351 43.1318 65.5052C42.5145 65.8053 41.8553 65.6363 41.2832 64.8961C40.698 64.1387 40.3658 62.9172 40.6443 61.6638C40.9681 60.2068 41.4796 58.9382 42.2937 57.9664C43.0895 57.0164 44.226 56.2875 45.9334 55.9794C47.5782 55.6826 49.3314 56.0909 50.8234 56.9907Z" fill="#FF542F"/>
<path fill-rule="evenodd" clip-rule="evenodd" d="M62.2222 31.3294C58.0262 29.252 54.2707 30.9546 52.7575 34.0679C51.9632 35.702 51.7471 37.3396 52.1034 38.9101C52.4609 40.4858 53.4148 42.0806 55.1082 43.5828C55.5372 43.9633 55.5764 44.6194 55.196 45.0483C54.8155 45.4772 54.1594 45.5165 53.7305 45.136C51.7789 43.405 50.5501 41.4478 50.0786 39.3695C49.6059 37.2859 49.9145 35.1675 50.8901 33.1603C52.9166 28.9909 57.934 26.8895 63.1434 29.4687C68.4291 32.0857 69.4236 37.6464 67.3701 41.7939C65.269 46.0375 60.9083 47.1311 57.1995 46.814C56.6282 46.7652 56.2047 46.2625 56.2535 45.6913C56.3024 45.12 56.8051 44.6965 57.3763 44.7453C60.6427 45.0246 63.9409 44.0406 65.5094 40.8727C67.1254 37.6087 66.3418 33.3691 62.2222 31.3294Z" fill="#FF542F"/>
<path fill-rule="evenodd" clip-rule="evenodd" d="M31.5049 53.5247C32.0775 53.4959 32.5651 53.9367 32.594 54.5093C32.8337 59.2694 32.7254 67.2309 32.4628 70.8858C32.3362 72.6482 32.5412 73.5209 32.7987 73.937C32.9834 74.2354 33.2714 74.4201 33.9812 74.4324C34.052 74.4336 34.3534 74.3568 34.9193 73.9182C35.4347 73.5189 36.0112 72.9458 36.5973 72.2903C37.6529 71.1097 38.6466 69.7686 39.2623 68.9376C39.3288 68.8478 39.391 68.7639 39.4483 68.6869C39.7905 68.2269 40.4408 68.1314 40.9008 68.4736C41.3609 68.8158 41.4564 69.4661 41.1142 69.9261C41.0587 70.0007 40.9975 70.0833 40.9312 70.1729C40.32 70.9981 39.2691 72.4171 38.1451 73.6742C37.5232 74.3697 36.8504 75.0485 36.1911 75.5594C35.5823 76.0311 34.7836 76.5229 33.9452 76.5083C32.8364 76.4891 31.7268 76.15 31.0333 75.0297C30.4127 74.0271 30.2591 72.5861 30.3919 70.737C30.6483 67.1688 30.756 59.2919 30.5203 54.6138C30.4915 54.0412 30.9323 53.5536 31.5049 53.5247Z" fill="#FFD940"/>
</svg>
