<svg width="16" height="16" viewBox="0 0 16 16" fill="none" xmlns="http://www.w3.org/2000/svg">
<path fill-rule="evenodd" clip-rule="evenodd" d="M6.19999 2.59999C4.21176 2.59999 2.59999 4.21176 2.59999 6.19999C2.59999 8.18821 4.21176 9.79999 6.19999 9.79999C8.18821 9.79999 9.79999 8.18821 9.79999 6.19999C9.79999 4.21176 8.18821 2.59999 6.19999 2.59999ZM0.799988 6.19999C0.799988 3.21765 3.21765 0.799988 6.19999 0.799988C9.18233 0.799988 11.6 3.21765 11.6 6.19999C11.6 7.36624 11.2303 8.44613 10.6017 9.32887L14.9364 13.6636C15.2879 14.0151 15.2879 14.5849 14.9364 14.9364C14.5849 15.2879 14.0151 15.2879 13.6636 14.9364L9.32887 10.6017C8.44613 11.2303 7.36624 11.6 6.19999 11.6C3.21765 11.6 0.799988 9.18233 0.799988 6.19999Z" fill="#889096"/>
</svg>
