<svg width="14" height="14" viewBox="0 0 14 14" fill="none" xmlns="http://www.w3.org/2000/svg">
<path fill-rule="evenodd" clip-rule="evenodd" d="M8.19135 1.53673C7.88813 0.287725 6.11182 0.287724 5.8086 1.53673C5.61272 2.34357 4.68833 2.72646 3.97931 2.29445C2.88172 1.62567 1.62567 2.88172 2.29445 3.97931C2.72646 4.68833 2.34357 5.61272 1.53673 5.8086C0.287724 6.11182 0.287725 7.88813 1.53673 8.19135C2.34357 8.38723 2.72646 9.31162 2.29445 10.0206C1.62568 11.1182 2.88172 12.3743 3.97931 11.7055C4.68834 11.2735 5.61272 11.6564 5.8086 12.4632C6.11182 13.7122 7.88813 13.7122 8.19135 12.4632C8.38723 11.6564 9.31162 11.2735 10.0206 11.7055C11.1182 12.3743 12.3743 11.1182 11.7055 10.0206C11.2735 9.31162 11.6564 8.38723 12.4632 8.19135C13.7122 7.88813 13.7122 6.11182 12.4632 5.8086C11.6564 5.61272 11.2735 4.68833 11.7055 3.97931C12.3743 2.88172 11.1182 1.62568 10.0206 2.29445C9.31162 2.72646 8.38723 2.34357 8.19135 1.53673ZM6.99998 9.39997C8.32546 9.39997 9.39997 8.32546 9.39997 6.99998C9.39997 5.67449 8.32546 4.59998 6.99998 4.59998C5.67449 4.59998 4.59998 5.67449 4.59998 6.99998C4.59998 8.32546 5.67449 9.39997 6.99998 9.39997Z" fill="#687076"/>
</svg>
