<svg width="16" height="16" viewBox="0 0 16 16" fill="none" xmlns="http://www.w3.org/2000/svg">
<path fill-rule="evenodd" clip-rule="evenodd" d="M8.0001 14.3996C11.5347 14.3996 14.4001 11.5342 14.4001 7.99961C14.4001 4.46499 11.5347 1.59961 8.0001 1.59961C4.46548 1.59961 1.6001 4.46499 1.6001 7.99961C1.6001 11.5342 4.46548 14.3996 8.0001 14.3996ZM6.96578 5.83392C6.65336 5.5215 6.14683 5.5215 5.83441 5.83392C5.52199 6.14634 5.52199 6.65288 5.83441 6.96529L6.86873 7.99961L5.83441 9.03392C5.52199 9.34634 5.52199 9.85287 5.83441 10.1653C6.14683 10.4777 6.65336 10.4777 6.96578 10.1653L8.0001 9.13098L9.03441 10.1653C9.34683 10.4777 9.85336 10.4777 10.1658 10.1653C10.4782 9.85287 10.4782 9.34634 10.1658 9.03392L9.13147 7.99961L10.1658 6.96529C10.4782 6.65288 10.4782 6.14634 10.1658 5.83392C9.85336 5.5215 9.34683 5.5215 9.03441 5.83392L8.0001 6.86824L6.96578 5.83392Z" fill="#DC3D43"/>
</svg>
